if (_typeface_js && _typeface_js.loadFace) _typeface_js.loadFace({"glyphs":{"S":{"x_min":29.015625,"x_max":776,"ha":836,"o":"m 29 168 q 54 86 29 120 q 119 29 80 51 q 203 -3 158 6 q 288 -14 248 -14 l 388 -14 q 506 0 440 -14 q 633 45 573 15 q 734 122 692 76 q 776 232 776 169 q 735 316 776 282 q 635 379 695 351 q 505 431 576 407 q 375 486 434 455 q 275 557 315 516 q 235 655 235 597 q 239 706 235 686 q 253 737 243 725 q 275 759 262 750 q 308 776 289 768 q 346 788 329 788 q 387 786 364 788 q 464 765 428 783 q 528 719 501 747 q 570 658 555 692 q 582 589 585 624 l 583 587 q 589 601 587 593 q 591 615 591 608 q 591 633 591 630 q 593 650 590 635 q 733 711 661 689 l 733 714 q 685 762 718 742 q 614 794 653 782 q 535 813 575 807 q 465 820 494 820 q 344 810 412 820 q 213 777 275 801 q 109 710 151 753 q 67 597 67 667 q 107 488 67 529 q 207 421 147 447 q 339 375 268 394 q 470 329 409 355 q 570 262 530 302 q 611 154 611 222 q 597 93 611 118 q 562 54 584 69 q 511 31 540 38 q 451 24 481 24 q 375 37 417 24 q 295 73 333 49 q 232 129 258 97 q 206 201 206 161 l 206 219 q 122 179 170 197 q 29 168 73 162 "},"¦":{"x_min":0,"x_max":0,"ha":485},"/":{"x_min":-19.453125,"x_max":579.21875,"ha":590,"o":"m 579 879 l 429 817 q 415 786 429 817 q 382 710 401 755 q 342 613 363 665 q 306 523 320 562 q 234 342 273 435 q 154 153 195 248 q 68 -33 112 59 q -19 -213 23 -126 l 130 -151 q 215 22 172 -68 q 300 207 258 113 q 380 394 341 301 q 451 576 419 488 q 488 667 466 615 q 529 767 509 720 q 564 846 550 813 q 579 879 579 879 "},"K":{"x_min":-1.453125,"x_max":894.265625,"ha":926,"o":"m 109 0 l 111 -1 q 165 7 133 7 q 225 5 197 7 q 274 0 253 2 q 294 -4 294 -4 q 290 38 294 -4 q 281 141 285 80 q 272 266 276 201 q 267 377 267 332 q 269 393 267 384 q 273 409 270 402 l 299 425 q 342 381 323 405 q 379 331 362 357 q 414 279 397 305 q 452 230 431 252 l 452 229 q 508 150 477 187 q 572 76 540 114 l 572 73 q 599 35 590 58 q 628 -1 609 12 q 694 5 662 4 q 760 5 727 5 q 827 5 794 5 q 894 8 860 5 q 822 46 863 14 q 734 127 780 79 q 642 235 688 176 q 558 351 597 294 q 490 457 519 408 q 449 536 460 506 q 482 565 455 544 q 548 615 509 587 q 633 673 587 643 q 720 732 678 704 q 795 783 762 761 q 844 815 828 805 l 844 816 l 844 818 q 728 809 785 818 q 612 801 670 801 q 574 802 592 801 q 535 807 555 803 q 558 767 549 788 q 567 723 567 746 q 550 676 567 702 q 506 623 533 650 q 445 569 478 596 q 379 518 412 542 q 317 475 347 494 q 272 445 288 456 q 263 631 263 538 q 267 868 263 748 q 294 1101 272 988 l 281 1103 q 262 1095 274 1103 q 242 1084 249 1087 q 190 1071 217 1076 q 138 1062 163 1066 q 75 1050 106 1057 q 12 1043 44 1043 l -1 1043 l 2 1039 q 37 1014 15 1029 q 81 981 59 998 q 120 945 104 964 q 137 910 137 926 q 140 658 137 783 q 143 406 143 532 q 137 202 143 303 q 109 0 131 100 "},"7":{"x_min":14.9375,"x_max":580.203125,"ha":663,"o":"m 306 634 l 304 637 l 306 634 m 133 651 l 131 653 l 130 653 l 133 651 m 580 785 l 580 807 l 577 804 q 434 765 503 785 q 287 745 364 745 q 155 763 216 745 q 39 826 95 782 l 14 808 l 27 719 q 68 680 42 694 q 123 660 94 666 q 182 653 152 654 q 238 653 213 653 q 289 658 264 653 q 337 671 313 664 q 385 685 360 678 q 434 696 409 692 q 345 591 385 634 q 269 503 305 547 q 199 406 232 459 q 132 271 166 352 l 130 271 q 115 214 123 243 q 108 155 108 184 q 134 61 108 98 q 206 -4 160 23 l 278 -20 l 309 -15 l 327 14 q 250 111 274 58 q 226 233 226 164 q 260 393 226 316 q 346 540 294 471 q 461 671 399 609 q 580 785 523 733 m 183 -147 l 180 -143 l 183 -147 "},"¨":{"x_min":355.578125,"x_max":636.15625,"ha":658,"o":"m 355 945 q 392 860 355 888 q 481 832 429 832 q 625 894 566 832 l 625 895 q 599 897 613 895 q 575 905 584 898 q 559 864 572 881 q 519 847 547 847 q 435 884 466 847 q 404 972 404 922 q 406 999 404 990 q 413 1012 408 1008 q 429 1015 419 1015 q 455 1015 438 1015 q 483 1015 462 1015 q 529 1016 505 1015 q 570 1017 552 1017 q 590 1017 590 1017 l 632 1021 l 636 1025 q 615 1023 625 1025 q 594 1022 605 1022 q 553 1072 579 1059 q 490 1086 527 1086 q 389 1047 423 1086 q 355 945 355 1008 m 483 1077 q 520 1066 504 1077 q 536 1032 536 1055 l 536 1025 q 523 1020 533 1020 q 470 1020 497 1020 q 416 1019 443 1019 l 412 1019 q 438 1059 413 1041 q 483 1077 462 1077 "},"d":{"x_min":62.59375,"x_max":898,"ha":961,"o":"m 252 33 q 288 19 263 26 q 340 5 312 12 q 393 -5 367 -1 q 433 -10 419 -10 q 603 17 520 -10 q 752 98 687 45 q 857 226 817 151 q 898 397 898 301 q 873 570 898 501 q 809 685 849 640 q 718 756 770 730 q 610 797 666 782 q 500 826 555 813 q 399 857 445 838 q 320 904 354 875 q 273 983 286 933 q 275 1002 272 990 q 275 1021 279 1014 q 184 897 237 958 q 62 807 132 836 q 76 806 63 806 q 93 806 90 806 q 138 809 115 807 q 184 810 161 811 q 323 805 255 806 q 462 797 391 804 q 472 797 465 797 q 480 794 480 797 l 474 792 l 449 788 l 401 781 q 364 770 387 778 q 317 751 341 762 q 271 730 293 741 q 239 712 250 719 q 169 648 200 687 q 118 562 138 609 q 86 466 97 516 q 75 371 75 416 q 99 202 75 280 q 195 62 123 124 q 206 54 199 59 q 222 45 213 49 q 238 37 230 41 q 249 34 245 34 l 252 35 l 252 33 m 524 29 q 398 67 452 29 q 309 163 344 105 q 256 288 273 220 q 239 417 239 356 q 250 538 239 476 q 288 651 261 599 q 361 735 315 702 q 480 767 408 767 q 497 766 488 767 q 515 763 505 765 q 515 764 513 765 q 516 763 516 763 l 522 762 l 519 765 q 524 766 519 767 q 529 762 529 765 q 527 762 529 762 q 526 761 526 762 q 623 695 584 740 q 685 592 662 649 q 719 473 709 535 q 729 355 729 410 q 720 247 729 305 q 690 141 712 190 q 627 60 667 92 q 523 29 587 29 l 524 29 "},",":{"x_min":44.453125,"x_max":332.4375,"ha":407,"o":"m 320 59 q 293 104 311 83 q 250 148 276 126 l 105 88 q 150 43 133 65 q 175 1 166 22 q 183 -63 187 -30 q 161 -128 179 -95 q 112 -193 143 -161 q 44 -256 81 -225 l 213 -188 q 272 -131 247 -161 q 313 -70 298 -101 q 331 -6 329 -38 q 320 59 334 26 "},"Y":{"x_min":74,"x_max":918.390625,"ha":1045,"o":"m 100 -306 q 137 -335 112 -324 q 191 -350 162 -345 q 249 -356 221 -355 q 297 -358 278 -358 q 392 -353 353 -358 q 467 -337 432 -348 q 539 -313 503 -327 q 623 -280 575 -299 l 628 -280 q 769 -129 716 -209 q 850 37 822 -49 q 887 216 878 123 q 898 405 896 309 q 903 599 901 501 q 918 795 904 697 q 771 788 846 788 q 625 777 696 788 q 687 742 657 762 q 747 704 716 722 q 755 579 751 641 q 758 455 758 518 q 756 325 758 395 q 735 192 754 254 q 672 89 715 130 q 546 48 629 48 q 407 84 466 48 q 310 177 348 121 q 253 305 272 234 q 235 447 235 376 q 239 541 235 493 q 256 636 244 589 q 287 726 268 683 q 336 807 307 769 q 206 797 273 807 q 75 783 139 788 q 117 746 100 765 q 153 702 135 727 q 92 539 111 626 q 74 364 74 451 q 90 217 74 286 q 144 94 107 147 q 241 11 182 42 q 387 -19 301 -19 q 499 -12 454 -19 q 582 10 544 -5 q 655 51 619 26 q 740 110 691 75 l 743 107 q 726 -41 743 32 q 672 -174 710 -116 q 574 -269 635 -232 q 425 -306 514 -306 q 371 -300 401 -306 q 314 -280 340 -294 q 270 -244 287 -266 q 253 -194 253 -223 l 253 -178 l 251 -177 q 178 -243 215 -209 q 100 -306 140 -277 "},"E":{"x_min":14,"x_max":915.28125,"ha":949,"o":"m 14 348 q 46 190 14 258 q 134 77 79 123 q 263 8 188 31 q 420 -14 337 -14 q 670 36 551 -14 q 879 183 790 87 l 879 191 q 839 192 861 191 q 795 196 818 192 q 753 205 773 199 q 718 220 733 210 q 700 147 712 181 q 667 87 688 113 q 613 47 645 62 q 538 33 581 33 q 385 65 454 33 q 268 153 316 98 q 194 282 220 209 q 168 435 168 355 q 174 524 168 495 q 198 563 180 552 q 249 574 216 574 q 333 573 281 573 q 386 572 348 573 q 473 571 424 571 q 574 569 522 570 q 670 567 627 567 q 742 565 713 566 q 770 564 770 564 l 902 592 l 915 608 q 849 603 881 608 q 781 598 816 598 q 724 697 758 658 q 649 760 691 737 q 556 794 608 784 q 445 803 505 803 q 258 771 338 803 q 123 678 177 738 q 41 533 69 617 q 14 348 14 449 m 425 776 q 489 767 458 776 q 544 739 520 758 q 581 693 568 720 q 595 629 595 665 l 595 608 q 577 595 588 597 q 555 594 566 594 q 381 591 468 594 q 209 588 295 588 l 198 588 q 221 659 198 625 q 278 718 244 693 q 352 760 312 744 q 425 776 391 776 "},"y":{"x_min":74,"x_max":918.390625,"ha":1043,"o":"m 100 -306 q 137 -335 112 -324 q 191 -350 162 -345 q 249 -356 221 -355 q 297 -358 278 -358 q 392 -353 353 -358 q 467 -337 432 -348 q 539 -313 503 -327 q 623 -280 575 -299 l 628 -280 q 769 -129 716 -209 q 850 37 822 -49 q 887 216 878 123 q 898 405 896 309 q 903 599 901 501 q 918 795 904 697 q 771 788 846 788 q 625 777 696 788 q 687 742 657 762 q 747 704 716 722 q 755 579 751 641 q 758 455 758 518 q 756 325 758 395 q 735 192 754 254 q 672 89 715 130 q 546 48 629 48 q 407 84 466 48 q 310 177 348 121 q 253 305 272 234 q 235 447 235 376 q 239 541 235 493 q 256 636 244 589 q 287 726 268 683 q 336 807 307 769 q 206 797 273 807 q 75 783 139 788 q 117 746 100 765 q 153 702 135 727 q 92 539 111 626 q 74 364 74 451 q 90 217 74 286 q 144 94 107 147 q 241 11 182 42 q 387 -19 301 -19 q 517 1 454 -19 q 630 45 580 21 q 710 90 679 69 q 740 110 740 110 l 743 107 q 732 64 743 104 q 698 -38 722 24 q 639 -160 675 -100 q 548 -263 603 -220 q 425 -306 494 -306 q 371 -300 401 -306 q 314 -280 340 -294 q 270 -244 287 -266 q 253 -194 253 -223 l 253 -178 l 251 -177 l 158 -259 l 155 -259 q 130 -284 144 -273 q 100 -306 115 -295 "},"\"":{"x_min":9.71875,"x_max":463.921875,"ha":504,"o":"m 463 1007 l 304 943 q 286 854 298 897 q 260 769 275 811 q 231 684 245 727 q 209 594 218 641 l 355 654 q 379 741 363 698 q 412 827 395 784 q 443 913 429 869 q 463 1007 458 958 m 268 1007 l 111 943 q 97 847 111 890 q 67 766 84 805 q 33 685 50 726 q 9 595 16 644 l 155 654 q 179 741 161 700 q 218 822 198 782 q 252 908 237 863 q 268 1007 268 952 "},"„":{"x_min":26.390625,"x_max":493.09375,"ha":592,"o":"m 491 268 l 345 209 q 344 118 343 163 q 343 26 345 72 q 334 -65 341 -19 q 304 -155 326 -111 l 461 -93 q 487 -7 481 -51 q 493 81 493 36 q 490 174 493 127 q 491 268 487 220 m 213 268 l 68 209 q 66 118 65 163 q 65 26 68 72 q 56 -65 63 -19 q 26 -155 48 -111 l 183 -93 q 209 -7 204 -51 q 215 81 215 36 q 212 174 215 127 q 213 268 209 220 "},"g":{"x_min":-17.171875,"x_max":1016.453125,"ha":1053,"o":"m 30 -208 q 114 -286 59 -252 q 233 -343 169 -320 q 364 -378 298 -366 q 481 -390 430 -390 q 561 -380 510 -390 q 671 -355 612 -371 q 792 -316 730 -340 q 903 -263 853 -292 q 984 -199 952 -234 q 1016 -124 1016 -163 q 981 -69 1016 -92 q 890 -26 947 -46 q 762 12 834 -6 q 615 57 691 32 q 468 116 540 83 q 340 196 396 150 q 249 307 284 243 q 215 457 215 371 q 243 556 215 516 q 317 620 271 596 q 421 656 363 644 q 540 673 480 668 q 656 680 601 679 q 753 686 712 682 q 787 695 767 687 q 828 713 806 703 q 869 733 849 723 q 905 747 890 743 q 937 753 924 753 q 949 771 949 753 l 949 778 q 867 760 915 762 q 784 758 820 758 l 602 758 q 393 764 498 758 q 184 773 288 769 q 152 777 170 773 q 131 798 134 780 l 164 842 l 157 842 q 124 812 151 835 q 68 764 98 789 q 12 719 38 739 q -17 697 -13 698 q 176 678 74 678 q 373 676 278 679 q 274 621 328 651 q 173 552 220 590 q 93 466 125 514 q 62 361 62 419 q 87 243 62 293 q 153 156 112 193 q 246 92 194 119 q 355 43 299 65 l 355 40 q 290 -24 331 10 q 201 -92 248 -58 q 109 -155 155 -126 q 30 -208 63 -185 m 184 -125 q 245 -75 208 -104 q 317 -21 281 -47 q 378 22 352 4 q 404 40 404 40 q 436 35 404 40 q 519 19 469 30 q 626 -8 569 8 q 733 -49 683 -25 q 816 -105 783 -73 q 848 -177 848 -137 q 829 -243 848 -215 q 779 -290 809 -272 q 714 -317 750 -308 q 647 -326 679 -326 q 524 -314 593 -326 q 388 -277 455 -302 q 266 -215 322 -252 q 184 -125 211 -177 "},"–":{"x_min":57.578125,"x_max":547.265625,"ha":607,"o":"m 547 541 l 395 480 q 363 431 377 458 q 341 375 348 404 q 335 317 334 347 q 347 258 336 287 q 368 219 355 236 l 518 279 q 503 299 509 290 q 494 318 497 308 q 490 431 473 372 q 547 541 506 491 m 269 541 l 118 480 q 85 431 100 458 q 63 375 70 404 q 57 317 56 347 q 69 258 58 287 q 90 219 77 236 l 240 279 q 225 299 231 290 q 216 318 219 308 q 212 431 195 372 q 269 541 229 491 "},"e":{"x_min":14,"x_max":915.28125,"ha":949,"o":"m 14 348 q 46 190 14 258 q 134 77 79 123 q 263 8 188 31 q 420 -14 337 -14 q 670 36 551 -14 q 879 183 790 87 l 879 191 q 839 192 861 191 q 795 196 818 192 q 753 205 773 199 q 718 220 733 210 q 700 147 712 181 q 667 87 688 113 q 613 47 645 62 q 538 33 581 33 q 385 65 454 33 q 268 153 316 98 q 194 282 220 209 q 168 435 168 355 q 174 522 168 495 q 198 556 180 548 q 249 562 216 565 q 333 559 281 559 q 386 560 348 559 q 473 561 424 561 q 574 562 522 561 q 670 564 627 564 q 742 564 713 564 q 770 565 770 565 l 902 593 l 915 608 q 849 603 881 608 q 781 598 816 598 q 724 697 758 658 q 649 760 691 737 q 556 794 608 784 q 445 804 505 804 q 258 771 338 804 q 123 678 177 738 q 41 533 69 617 q 14 348 14 449 m 425 776 q 489 767 458 776 q 544 739 520 758 q 581 693 568 720 q 595 629 595 665 l 595 608 q 577 595 588 597 q 555 594 566 594 q 381 591 468 594 q 209 589 295 589 l 198 589 q 221 659 198 625 q 278 718 244 693 q 352 760 312 744 q 425 776 391 776 "},"Ã":{"x_min":65.75,"x_max":586.15625,"ha":657,"o":"m 586 1019 l 436 958 q 358 793 380 879 q 347 598 336 707 l 497 659 q 506 848 486 763 q 586 1019 526 933 m 308 1019 l 158 958 q 80 793 102 879 q 69 598 58 707 l 219 659 q 228 848 208 763 q 308 1019 248 933 "},"J":{"x_min":38.890625,"x_max":280.921875,"ha":344,"o":"m 47 -229 l 51 -231 q 93 -187 70 -210 q 133 -142 115 -165 l 133 -140 q 218 -12 187 -87 q 263 151 248 63 q 279 336 277 240 q 279 525 281 431 q 275 707 277 619 q 280 867 273 794 q 190 818 234 840 q 98 776 147 796 q 85 773 93 773 q 75 766 77 772 q 55 760 63 764 q 38 753 47 757 q 109 707 87 734 q 137 646 130 680 q 142 571 144 612 q 140 484 140 530 q 141 345 140 418 q 142 199 143 272 q 136 54 141 126 q 118 -82 131 -16 q 93 -158 109 -118 q 50 -226 76 -199 l 47 -229 "},"»":{"x_min":2.78125,"x_max":521.015625,"ha":632,"o":"m 509 468 q 493 495 502 483 q 472 519 484 508 l 326 459 q 350 435 341 447 q 365 409 359 423 q 375 346 376 380 q 362 279 373 312 q 331 220 351 247 q 286 177 311 193 l 288 172 l 433 230 q 478 272 458 245 q 509 333 498 300 q 520 402 519 366 q 509 468 522 437 m 252 429 q 218 472 241 455 q 155 494 195 488 l 2 431 q 74 410 50 426 q 108 370 98 394 q 100 270 126 326 q 8 170 73 215 l 180 240 q 222 279 205 256 q 250 328 240 302 q 261 379 259 354 q 252 429 262 405 "},"§":{"x_min":72.234375,"x_max":745.890625,"ha":772,"o":"m 431 638 l 286 578 q 350 516 329 554 q 391 435 370 478 l 558 503 q 502 582 534 549 q 431 638 470 615 m 218 400 l 72 340 q 112 307 98 323 q 135 275 126 291 q 150 242 144 259 q 169 204 156 225 l 326 266 q 304 306 313 288 q 283 340 294 325 q 257 369 272 355 q 218 400 243 383 m 629 416 l 483 356 q 522 329 506 344 q 550 297 538 313 q 570 261 561 280 q 588 219 579 241 l 745 283 q 699 362 726 331 q 629 416 672 393 m 452 215 l 308 155 q 357 101 343 126 q 384 45 372 76 q 388 33 387 40 q 393 18 390 27 l 554 83 q 550 94 552 88 q 544 106 547 99 q 508 164 530 141 q 452 215 486 187 "},"«":{"x_min":57.578125,"x_max":547.265625,"ha":607,"o":"m 547 541 l 395 480 q 363 431 377 458 q 341 375 348 404 q 335 317 334 347 q 347 258 336 287 q 368 219 355 236 l 518 279 q 503 299 509 290 q 494 318 497 308 q 490 431 473 372 q 547 541 506 491 m 269 541 l 118 480 q 85 431 100 458 q 63 375 70 404 q 57 317 56 347 q 69 258 58 287 q 90 219 77 236 l 240 279 q 225 299 231 290 q 216 318 219 308 q 212 431 195 372 q 269 541 229 491 "},"q":{"x_min":29.4375,"x_max":878.125,"ha":1006,"o":"m 300 -369 l 300 -373 q 319 -376 311 -376 q 339 -376 329 -376 q 476 -354 410 -376 q 608 -305 543 -332 q 738 -254 673 -278 q 869 -224 803 -230 q 846 -92 850 -166 q 842 43 842 -18 q 840 114 842 79 q 842 186 839 150 l 878 768 l 878 792 q 861 786 871 789 q 840 779 851 782 q 819 775 829 777 q 803 773 808 773 q 760 771 782 773 q 715 773 737 770 q 606 786 662 778 q 497 795 550 795 q 313 767 398 795 q 164 687 228 740 q 65 554 101 633 q 29 371 29 475 q 125 84 29 186 q 410 -18 221 -18 q 509 -2 461 -18 q 596 29 557 12 q 662 62 635 47 q 703 77 690 77 l 703 -144 q 665 -257 703 -216 q 554 -298 628 -298 q 507 -293 532 -298 q 462 -279 483 -289 q 425 -251 440 -268 q 405 -209 410 -234 q 385 -235 398 -214 q 355 -282 371 -256 q 325 -332 340 -307 q 300 -369 310 -356 m 176 450 q 194 581 176 521 q 246 683 211 640 q 337 749 282 725 q 466 773 391 773 q 586 754 539 773 q 661 703 633 735 q 701 627 689 671 q 716 533 712 583 q 718 430 719 483 q 717 323 717 376 q 711 220 717 271 q 685 129 705 169 q 627 66 665 90 q 523 43 589 43 q 380 79 444 43 q 271 175 316 116 q 200 306 225 233 q 176 450 176 379 "},"b":{"x_min":63.5,"x_max":904.234375,"ha":961,"o":"m 511 37 q 377 82 436 37 q 277 194 318 127 q 214 339 236 262 q 193 481 193 417 q 209 592 193 540 q 256 686 225 645 q 336 751 288 727 q 450 775 384 775 q 576 733 525 775 q 659 629 627 691 q 706 494 691 566 q 720 360 720 421 q 711 253 720 310 q 679 148 702 196 q 614 68 655 100 q 511 37 573 37 m 201 53 q 261 21 230 33 q 324 4 293 9 q 385 -1 355 0 q 440 -3 415 -3 q 609 26 526 -3 q 758 108 693 55 q 863 238 823 162 q 904 407 904 313 q 901 478 904 447 q 891 537 898 509 q 872 594 884 565 q 844 660 861 623 l 841 661 q 796 724 825 696 q 732 772 768 753 q 658 802 697 792 q 581 813 619 813 q 438 801 506 813 q 304 756 370 790 q 259 725 276 742 l 236 704 l 233 704 q 256 799 233 743 q 306 915 279 854 q 356 1034 333 975 q 379 1140 379 1093 q 377 1145 379 1145 q 301 1138 340 1145 q 223 1131 262 1131 l 222 1129 l 126 1132 l 125 1128 q 147 1101 134 1115 q 171 1072 159 1088 q 190 1040 183 1057 q 198 1006 198 1024 q 188 926 198 965 q 163 848 177 887 q 134 766 150 808 q 109 675 119 723 q 91 584 100 632 q 76 495 83 537 q 65 421 69 454 q 63 376 62 388 l 66 331 l 70 290 q 79 252 70 281 q 104 186 87 223 q 145 113 120 149 q 201 53 169 76 m 598 727 l 598 726 l 598 727 "},"D":{"x_min":62.59375,"x_max":898,"ha":960,"o":"m 252 43 q 288 29 263 36 q 340 15 312 22 q 393 4 367 8 q 433 0 419 0 q 603 27 520 0 q 752 108 687 55 q 857 236 817 161 q 898 407 898 311 q 873 580 898 511 q 809 695 849 650 q 718 766 770 740 q 610 807 666 792 q 500 836 555 823 q 399 867 445 848 q 320 914 354 885 q 273 993 286 943 q 275 1012 272 1000 q 275 1031 279 1024 q 184 906 237 968 q 62 816 132 845 q 76 815 63 815 q 93 815 90 815 q 138 818 115 816 q 184 819 161 820 q 323 814 255 815 q 462 807 391 813 q 472 807 465 807 q 480 804 480 807 l 474 802 l 449 798 l 401 791 q 364 780 387 788 q 317 761 341 772 q 271 740 293 751 q 239 722 250 729 q 169 658 200 697 q 118 572 138 619 q 86 476 97 526 q 75 381 75 426 q 99 212 75 290 q 195 72 123 134 q 206 65 199 69 q 222 56 213 61 q 238 47 230 51 q 249 44 245 44 l 252 45 l 252 43 m 524 39 q 398 77 452 39 q 309 173 344 115 q 256 298 273 230 q 239 427 239 366 q 250 548 239 486 q 288 661 261 609 q 361 745 315 712 q 480 777 408 777 q 497 776 488 777 q 515 773 505 775 q 515 774 513 775 q 516 773 516 773 l 522 772 l 519 775 q 524 776 519 777 q 529 772 529 775 q 527 772 529 772 q 526 771 526 772 q 623 705 584 750 q 685 602 662 659 q 719 483 709 545 q 729 365 729 420 q 720 257 729 315 q 690 151 712 200 q 627 70 667 102 q 523 39 587 39 l 524 39 "},"∙":{"x_min":165.296875,"x_max":665.328125,"ha":772,"o":"m 431 564 l 323 520 q 370 474 355 501 q 401 415 386 447 l 525 463 q 484 524 508 500 q 431 564 461 548 m 273 388 l 165 344 q 195 320 184 331 q 211 296 205 308 q 223 271 218 284 q 237 243 229 258 l 354 290 q 337 320 344 306 q 322 344 330 333 q 302 366 313 355 q 273 388 291 376 m 579 401 l 469 356 q 519 313 505 337 q 548 255 533 288 l 665 302 q 630 361 650 338 q 579 401 611 383 m 448 251 l 340 208 q 376 168 365 186 q 397 126 387 150 q 400 117 398 122 q 404 106 401 112 l 523 154 q 515 172 518 165 q 488 215 504 197 q 448 251 472 232 "},"Ö":{"x_min":29,"x_max":891,"ha":956,"o":"m 29 396 q 49 259 29 329 q 108 130 69 189 q 207 35 148 72 q 344 -1 266 -1 q 546 19 448 -1 q 721 87 644 39 q 844 216 797 135 q 891 419 891 297 q 790 725 891 619 q 489 831 690 831 q 302 802 387 831 q 157 718 218 774 q 63 582 97 662 q 29 396 29 501 m 190 450 q 199 570 190 508 q 236 686 209 633 q 310 772 263 738 q 430 807 356 807 q 531 784 487 807 q 607 723 575 761 q 662 636 640 686 q 698 534 685 587 q 718 429 712 482 q 724 332 724 376 q 717 229 724 282 q 688 135 710 177 q 628 66 666 93 q 527 39 590 39 q 386 76 448 39 q 279 173 323 114 q 212 305 235 232 q 190 450 190 379 m 515 945 q 552 860 515 888 q 641 832 588 832 q 718 848 682 832 q 783 894 755 864 l 783 895 q 757 897 772 895 q 733 905 743 898 q 718 864 730 882 q 677 847 705 847 q 593 884 625 847 q 562 972 562 922 q 564 999 562 990 q 572 1012 566 1008 q 587 1015 577 1015 q 613 1015 598 1015 q 643 1015 620 1015 q 688 1016 665 1015 q 730 1017 712 1017 q 750 1017 750 1017 l 791 1021 l 795 1025 q 775 1023 784 1025 q 754 1022 765 1022 q 712 1072 738 1059 q 648 1086 686 1086 q 548 1047 581 1086 q 515 945 515 1008 m 643 1078 q 679 1067 663 1078 q 695 1032 695 1056 l 695 1025 q 683 1021 693 1021 q 629 1020 655 1021 q 576 1020 602 1020 l 572 1020 q 596 1060 572 1043 q 643 1078 620 1078 "},"z":{"x_min":0,"x_max":812.5625,"ha":842,"o":"m 637 -93 q 623 -144 637 -119 q 629 -143 626 -145 q 633 -141 632 -141 q 718 -20 670 -75 q 812 90 765 33 l 812 94 q 797 89 809 94 q 770 78 786 84 q 738 66 754 72 q 713 59 722 61 q 588 44 651 50 q 462 38 525 38 q 360 40 411 38 q 258 47 309 41 l 256 51 q 271 81 256 51 q 311 160 286 111 q 370 272 337 209 q 440 402 402 336 q 516 533 477 468 q 592 651 555 598 q 661 739 629 704 q 718 782 694 775 l 713 783 q 654 780 702 783 q 540 777 607 777 q 399 779 473 776 q 261 796 325 783 q 154 834 197 809 q 108 900 111 859 l 104 900 q 59 766 84 827 q 0 638 34 705 l 0 637 q 90 699 41 676 q 192 733 140 722 q 300 747 244 744 q 409 751 355 751 l 493 751 l 494 747 q 469 679 494 730 q 404 557 444 627 q 312 406 363 487 q 207 246 261 325 q 103 101 154 168 q 13 -5 52 34 q 104 -2 45 -5 q 231 4 162 1 q 373 5 301 6 q 504 -5 445 4 q 600 -36 562 -15 q 637 -93 637 -56 "},"":{"x_min":-26.390625,"x_max":502.8125,"ha":533,"o":"m 502 375 q 495 374 502 375 q 452 374 488 374 q 342 373 418 374 q 129 372 266 372 l -26 309 q 193 309 116 309 q 305 308 270 308 q 345 307 340 308 q 350 307 350 307 l 502 375 "},"w":{"x_min":23.609375,"x_max":1455.671875,"ha":1533,"o":"m 1455 762 q 1172 779 1314 779 l 1165 779 q 1195 752 1177 765 q 1231 723 1213 739 q 1261 691 1248 708 q 1273 654 1273 675 q 1263 548 1273 607 q 1237 426 1252 489 q 1204 304 1222 363 q 1172 197 1187 244 q 1146 122 1157 151 q 1136 94 1136 94 q 1112 138 1136 94 q 1052 252 1088 183 q 973 405 1016 322 q 891 566 930 489 q 822 704 852 643 q 782 789 791 765 l 559 789 l 559 784 q 607 741 586 769 q 646 678 629 712 q 677 609 663 644 q 700 547 690 575 q 660 433 679 491 q 620 316 641 375 q 576 202 600 258 q 522 94 552 145 l 515 84 l 512 88 q 472 171 491 130 q 437 255 454 212 l 222 810 q 123 794 173 796 q 23 789 73 791 q 88 700 56 758 q 150 568 120 641 q 209 412 180 494 q 265 253 238 330 q 319 109 293 176 q 370 -2 345 41 q 468 0 419 -2 q 565 1 516 2 l 550 27 l 740 445 l 744 448 l 751 445 l 993 -7 q 1098 -4 1045 -7 q 1202 -2 1150 -1 q 1198 6 1201 0 q 1193 21 1195 13 q 1188 35 1190 29 q 1186 44 1186 41 q 1202 107 1186 56 q 1245 229 1219 158 q 1301 381 1270 300 q 1360 537 1332 462 q 1411 671 1389 612 q 1444 754 1434 729 l 1455 762 "},"$":{"x_min":30.5625,"x_max":605.734375,"ha":667,"o":"m 597 337 q 564 381 586 365 q 517 408 543 398 q 462 425 491 418 q 406 440 433 431 q 356 452 388 445 q 293 470 325 459 q 233 496 261 480 q 195 536 205 512 q 192 614 181 569 q 226 691 202 659 q 244 693 236 693 q 262 693 254 693 l 263 684 l 279 691 q 364 661 327 684 q 420 594 401 638 q 431 555 427 576 q 436 506 436 534 l 580 565 q 565 652 580 616 q 502 731 544 705 q 406 759 459 757 q 415 901 400 832 l 256 837 q 252 785 251 812 q 258 730 254 758 l 112 670 q 72 639 90 662 q 45 588 55 616 q 34 529 36 559 q 43 475 33 500 q 79 432 52 450 q 139 403 106 415 q 203 384 172 391 q 254 370 234 376 q 309 356 280 362 q 363 340 337 350 q 409 315 388 330 q 441 273 430 300 q 443 206 454 241 q 409 140 433 170 q 344 160 376 144 q 284 197 312 176 q 232 245 255 219 q 193 295 209 270 l 30 230 q 111 139 62 183 q 220 77 161 95 l 197 68 q 195 -57 197 -18 q 193 -104 194 -97 q 191 -111 191 -111 l 194 -116 l 344 -50 l 345 -54 q 345 -46 345 -52 q 343 -25 344 -40 q 342 14 343 -11 q 341 81 341 40 l 500 145 q 549 177 526 156 q 586 225 572 198 q 604 280 601 251 q 597 337 608 309 "},"’":{"x_min":65.75,"x_max":586.15625,"ha":657,"o":"m 586 1019 l 436 958 q 358 793 380 879 q 347 598 336 707 l 497 659 q 506 848 486 763 q 586 1019 526 933 m 308 1019 l 158 958 q 80 793 102 879 q 69 598 58 707 l 219 659 q 228 848 208 763 q 308 1019 248 933 "},"-":{"x_min":-55.5625,"x_max":515.3125,"ha":603,"o":"m 515 463 l 100 463 l -55 400 l 359 400 l 515 463 "},"Q":{"x_min":29,"x_max":878,"ha":975,"o":"m 596 -299 l 634 -328 q 682 -300 651 -318 q 748 -266 714 -283 q 816 -237 783 -250 q 869 -225 848 -225 q 846 -92 850 -166 q 842 43 842 -18 q 840 114 842 79 q 842 186 839 150 l 878 768 l 878 792 q 861 785 871 789 q 840 779 851 782 q 818 774 829 776 q 802 772 808 772 q 759 771 782 772 q 715 772 737 769 q 606 786 662 778 q 497 795 550 795 q 313 767 398 795 q 164 687 227 740 q 65 554 101 633 q 29 371 29 475 q 124 84 29 186 q 409 -18 220 -18 q 509 -2 461 -18 q 595 29 557 12 q 662 62 634 47 q 703 77 690 77 l 703 -144 q 670 -235 703 -193 q 596 -299 637 -276 m 176 449 q 193 580 176 520 q 246 682 210 640 q 336 748 281 725 q 466 772 391 772 q 586 753 538 772 q 661 702 633 734 q 701 627 689 670 q 716 533 712 583 q 718 429 719 483 q 717 323 717 376 q 711 220 717 270 q 685 129 705 169 q 627 66 665 90 q 523 43 589 43 q 380 79 444 43 q 270 174 316 116 q 200 306 224 233 q 176 449 176 379 "},"M":{"x_min":5.28125,"x_max":1253.6875,"ha":1370,"o":"m 1042 3 l 1243 1 q 1249 0 1245 1 q 1253 2 1253 0 q 1238 8 1246 5 q 1224 19 1230 12 q 1218 42 1221 30 q 1214 66 1214 55 l 1214 264 q 1220 364 1214 308 q 1229 480 1225 421 q 1227 596 1232 540 q 1202 698 1223 653 q 1141 769 1182 742 q 1030 797 1100 797 q 941 793 977 797 q 875 781 906 790 q 814 756 845 772 q 736 716 782 741 q 731 719 734 713 q 727 727 728 726 q 688 767 709 752 q 655 783 675 776 q 611 795 634 790 q 566 803 588 800 q 531 806 545 806 q 464 798 495 806 q 402 780 432 790 q 341 757 371 769 q 277 735 310 744 q 274 739 274 735 q 275 756 274 743 q 276 783 275 769 q 275 808 277 797 q 270 821 274 819 q 216 804 248 812 q 152 789 185 796 q 86 779 119 783 q 28 775 53 775 q 16 775 23 775 q 5 772 10 775 q 84 714 59 739 q 119 659 109 689 q 127 590 128 630 q 126 487 126 550 q 120 343 126 415 q 115 200 115 272 l 115 179 l 116 173 q 115 171 113 173 q 115 162 116 169 q 105 80 109 125 q 92 0 101 36 q 134 6 109 5 q 185 7 159 7 q 237 6 212 7 q 279 3 262 5 l 269 46 q 260 144 259 91 q 261 241 261 196 q 258 326 261 274 q 255 432 255 377 q 260 546 255 489 q 282 647 266 602 q 328 721 298 692 q 407 749 359 749 q 518 715 480 749 q 573 630 556 681 q 591 519 589 580 q 593 405 593 459 q 589 303 593 355 q 579 201 584 252 q 569 98 574 149 q 564 1 564 48 l 566 0 l 655 3 l 763 1 l 770 1 q 764 24 770 6 q 752 64 759 42 q 741 111 746 87 q 736 153 736 135 l 736 345 q 735 421 736 378 q 736 508 734 463 q 746 596 738 553 q 771 673 753 639 q 818 727 789 706 q 895 748 848 748 q 982 721 949 748 q 1034 655 1016 695 q 1059 568 1053 616 q 1066 477 1066 520 q 1066 362 1066 423 q 1065 240 1067 302 q 1058 119 1063 178 q 1041 6 1053 59 l 1042 3 "},"C":{"x_min":69,"x_max":852.609375,"ha":883,"o":"m 69 358 q 98 191 69 261 q 181 78 128 122 q 308 12 234 33 q 472 -8 383 -8 q 592 3 538 -8 q 692 41 647 15 q 777 106 738 67 q 852 201 816 146 l 851 203 q 799 202 827 200 q 745 208 770 204 q 703 215 720 211 q 687 218 687 218 l 685 218 q 682 203 685 218 q 672 165 678 188 q 654 120 665 143 q 631 82 644 97 l 631 81 q 584 47 613 56 q 526 38 555 38 q 403 78 459 38 q 306 180 347 119 q 244 311 266 242 q 222 439 222 380 q 231 550 222 491 q 263 659 240 609 q 329 742 287 709 q 438 775 372 775 q 531 759 488 775 q 607 715 574 744 q 658 644 640 686 q 677 551 677 602 l 681 549 q 705 593 687 565 q 744 649 723 620 q 788 700 766 677 q 822 730 809 723 l 820 733 q 663 796 742 772 q 497 814 584 820 l 456 811 l 445 807 l 445 808 q 162 663 255 772 q 69 358 69 554 "},"œ":{"x_min":40.28125,"x_max":311.59375,"ha":411,"o":"m 301 918 q 244 993 284 957 l 98 933 q 136 895 122 912 q 156 859 150 877 q 161 785 170 822 q 130 710 151 748 q 83 633 109 672 q 40 552 56 594 l 198 616 q 239 693 215 655 q 282 768 263 732 q 309 842 301 805 q 301 918 316 879 "},"L":{"x_min":19.453125,"x_max":279.1875,"ha":328,"o":"m 48 5 l 51 1 q 61 1 52 1 q 82 3 70 2 q 100 5 94 5 q 109 5 104 5 q 119 6 115 5 l 125 9 l 125 7 q 197 5 159 7 q 269 5 236 2 l 270 6 q 255 62 261 24 q 247 142 250 99 q 245 224 245 184 q 244 289 244 264 q 247 581 244 435 q 258 873 251 727 q 262 950 259 904 q 268 1039 265 997 q 273 1112 270 1081 q 276 1143 276 1143 l 276 1141 l 279 1140 l 276 1141 l 276 1143 q 250 1133 276 1143 q 184 1111 223 1123 q 101 1086 145 1098 q 20 1070 56 1074 l 19 1067 q 54 1041 34 1059 q 81 1008 73 1023 l 81 1006 q 111 941 104 983 q 119 867 119 899 q 104 495 119 681 q 90 124 90 309 q 79 75 90 105 q 59 26 68 45 q 48 5 50 7 "},"!":{"x_min":25,"x_max":229.1875,"ha":283,"o":"m 186 215 l 186 848 l 42 790 l 42 156 l 186 215 m 229 29 q 199 71 218 48 q 173 113 180 94 l 175 108 q 172 115 173 111 q 168 126 170 119 l 25 68 q 29 52 25 62 q 49 5 37 30 q 68 -34 61 -19 l 229 29 "}," ":{"x_min":0,"x_max":0,"ha":369},"X":{"x_min":-101.390625,"x_max":1129.25,"ha":1170,"o":"m 484 372 q 375 182 436 283 q 244 -12 315 82 q 93 -187 173 -106 q -75 -317 13 -269 l -100 -331 l -101 -333 q 14 -298 -47 -333 q 138 -208 76 -263 q 260 -85 200 -154 q 373 52 320 -16 q 468 181 426 120 q 537 283 511 243 q 562 257 547 280 q 597 202 577 234 q 642 133 616 170 q 700 65 668 97 q 772 13 733 34 q 859 -7 812 -7 q 927 0 887 -7 q 1002 16 966 8 q 1064 32 1038 24 q 1090 40 1090 40 l 1093 56 q 1073 50 1090 55 q 1031 39 1057 45 q 988 33 1005 33 q 920 56 955 33 q 850 115 884 79 q 782 196 815 151 q 720 286 748 241 q 670 372 693 331 q 633 438 647 412 q 670 529 641 476 q 738 630 698 581 q 822 712 777 678 q 909 747 868 747 q 948 737 932 747 q 977 714 965 728 q 998 681 988 699 q 1013 644 1007 662 q 1072 727 1041 685 q 1129 810 1102 769 l 1055 813 q 866 789 947 817 q 731 719 784 760 q 645 634 677 678 q 600 562 612 590 q 586 531 587 534 q 576 548 586 531 q 552 589 566 565 q 520 639 537 613 q 491 683 504 665 l 491 684 q 446 738 469 713 q 397 782 423 763 q 339 811 370 801 q 269 822 308 822 q 237 819 261 822 q 188 814 213 817 q 142 806 162 810 q 122 797 122 801 q 130 793 122 794 q 150 792 138 792 q 170 790 161 791 q 183 790 180 790 q 243 758 212 783 q 294 709 275 733 q 401 547 352 634 q 484 372 450 459 "},"P":{"x_min":20.65625,"x_max":896.21875,"ha":940,"o":"m 129 326 l 129 180 q 129 117 129 159 q 129 25 129 77 q 126 -81 129 -25 q 119 -185 123 -136 q 106 -268 115 -233 q 85 -313 98 -303 l 87 -313 q 175 -276 131 -294 q 262 -242 218 -257 q 260 -117 261 -179 q 267 6 260 -56 l 273 10 q 344 -1 308 10 q 419 -13 380 -13 q 616 20 528 -13 q 767 114 704 53 q 862 262 829 175 q 896 455 896 348 q 864 614 896 546 q 779 727 833 683 q 651 793 725 771 q 493 815 578 815 q 408 808 451 815 q 324 788 365 802 q 247 751 283 774 q 183 696 211 728 l 20 687 q 90 617 67 659 q 122 526 113 576 q 129 425 130 477 q 129 326 129 373 m 379 145 q 379 157 379 152 q 380 171 379 164 l 379 175 q 329 113 358 142 q 273 57 301 85 l 270 57 q 266 91 268 74 q 265 125 265 109 q 265 334 265 229 q 270 542 266 438 q 281 637 272 592 q 313 717 291 682 q 372 772 334 752 q 468 792 409 792 q 588 750 540 792 q 666 645 637 707 q 708 511 695 582 q 720 382 720 439 q 717 275 720 335 q 696 163 713 216 q 642 76 679 111 q 540 41 605 41 q 491 47 519 41 q 438 68 463 54 q 396 100 413 81 q 379 145 379 120 "},"%":{"x_min":-6.9375,"x_max":1026.46875,"ha":1049,"o":"m 597 719 q 555 771 581 757 q 497 788 529 786 q 435 786 466 791 q 380 777 404 780 l 205 708 q 218 709 212 708 q 231 711 225 709 l 220 707 q 177 661 194 687 q 154 609 161 636 q 149 554 147 581 q 162 501 151 526 q 187 459 172 477 q 223 429 202 440 q 270 417 244 418 q 325 427 295 416 l 325 429 l 475 488 q 529 524 501 500 q 577 580 556 548 q 604 648 597 612 q 597 719 611 684 m 1026 752 l 866 688 q 835 658 851 672 q 800 634 819 645 q 762 610 782 623 q 722 583 743 598 q 644 518 680 551 q 571 455 608 485 q 495 397 534 424 q 408 351 455 370 l 404 349 q 293 285 343 324 q 195 200 243 245 q 98 111 147 155 q -6 34 50 67 l -5 29 l 137 87 q 245 165 195 120 q 343 254 294 209 q 443 338 391 298 q 555 404 494 379 l 559 406 q 646 451 607 424 q 722 509 686 479 q 795 573 759 540 q 873 638 832 606 q 952 690 915 669 q 1026 752 990 712 m 875 302 q 833 354 859 340 q 775 372 807 369 q 713 369 744 375 q 658 361 682 363 l 483 291 q 496 292 490 291 q 509 294 502 293 l 498 290 q 455 245 472 270 q 431 192 438 219 q 427 137 425 165 q 440 84 429 109 q 465 42 450 61 q 501 12 480 23 q 547 0 522 1 q 602 11 573 0 l 602 12 l 752 72 q 807 107 779 83 q 854 163 834 131 q 882 231 875 195 q 875 302 888 268 m 443 658 q 443 567 461 613 q 394 484 426 520 q 341 511 363 491 q 308 559 319 531 q 297 638 293 595 q 331 722 301 682 q 397 708 368 722 q 443 658 427 694 m 720 241 q 721 150 738 197 q 672 68 704 104 q 619 95 641 75 q 586 143 597 115 q 575 222 570 179 q 609 305 579 265 q 675 291 645 305 q 720 241 705 277 "},"#":{"x_min":-6.9375,"x_max":1048.140625,"ha":1139,"o":"m 1047 679 l 1045 677 q 1032 677 1043 677 q 995 677 1020 677 q 925 675 969 676 q 811 675 880 675 q 839 757 826 718 q 859 815 852 796 q 866 837 865 834 l 722 779 l 684 673 l 441 672 q 493 797 473 747 q 513 847 513 847 l 361 784 q 348 753 361 784 q 313 671 336 722 l 198 671 l 43 606 l 288 608 q 256 530 273 571 q 220 448 238 489 l 148 448 l -6 384 l 193 384 q 143 273 168 326 q 100 181 119 221 l 251 242 q 282 308 266 271 q 318 384 298 344 l 580 384 l 577 373 q 548 278 561 328 q 522 198 536 228 l 675 259 q 691 312 683 278 q 709 384 698 346 q 760 383 744 384 q 777 383 776 383 q 780 383 780 383 l 930 450 q 926 450 930 450 q 904 449 923 450 q 845 448 886 448 q 732 448 805 448 q 758 524 743 481 q 788 611 773 566 l 893 611 l 893 609 q 894 610 893 609 q 893 611 895 611 l 1045 677 q 1048 678 1048 677 q 1047 679 1047 679 m 662 611 l 604 448 l 345 448 q 381 529 363 488 q 415 609 398 569 q 552 609 493 609 q 662 611 613 609 "},"À":{"x_min":-12.5,"x_max":1141.765625,"ha":1172,"o":"m 1141 421 q 1136 421 1141 421 q 1104 421 1132 421 q 1016 420 1076 421 q 845 418 957 419 q 563 415 734 416 q 144 411 393 414 l -12 347 q 413 351 240 350 q 698 354 586 352 q 871 356 811 355 q 959 357 932 357 q 991 357 987 357 q 997 357 997 357 l 1141 421 "},"+":{"x_min":-23.140625,"x_max":732.3125,"ha":739,"o":"m 732 366 q 726 366 732 366 q 694 365 722 366 q 607 364 667 365 q 437 362 547 363 q 439 486 439 416 q 440 642 439 555 l 294 584 q 294 463 294 517 q 292 361 293 408 l 132 359 l -23 295 q 153 297 76 296 q 292 298 231 298 q 289 143 290 197 q 286 64 287 89 q 284 35 285 39 q 283 31 283 31 l 285 25 l 439 95 l 440 89 q 440 97 440 91 q 439 125 439 104 q 438 188 439 147 q 438 299 438 229 q 540 299 508 299 q 576 299 572 299 q 582 299 582 299 l 732 366 "},")":{"x_min":43.0625,"x_max":387.09375,"ha":461,"o":"m 363 505 l 363 507 l 362 507 l 362 508 l 361 511 q 329 586 347 547 q 291 666 311 626 q 252 746 272 707 q 213 821 231 786 l 69 762 q 145 607 109 690 q 209 452 181 523 l 211 451 l 211 450 q 228 289 240 375 q 184 118 216 204 q 112 -49 152 33 q 43 -202 72 -131 l 206 -137 q 274 11 234 -69 q 344 177 313 93 q 384 346 375 262 q 363 505 394 430 "},"'":{"x_min":5.5625,"x_max":256.96875,"ha":293,"o":"m 256 1020 l 98 955 q 75 894 84 928 q 55 825 65 861 q 34 754 45 790 q 5 683 22 717 l 154 742 q 182 810 170 774 q 206 882 194 845 q 229 953 218 918 q 256 1020 241 987 "},"Ä":{"x_min":74,"x_max":918.515625,"ha":993,"o":"m 697 88 q 696 50 697 69 q 692 12 694 31 q 690 1 692 9 q 694 -5 687 -7 q 837 6 764 9 l 918 5 l 918 7 q 876 39 892 10 q 850 111 860 67 q 836 207 840 155 q 831 308 832 259 q 831 400 831 358 q 832 465 832 442 q 831 514 832 488 q 832 563 829 540 q 834 610 833 584 q 837 662 835 635 q 844 713 839 688 q 857 756 849 737 q 882 782 867 777 q 915 799 897 787 l 914 817 l 912 820 q 852 787 881 805 q 792 754 824 769 l 731 784 q 644 805 689 799 q 555 811 600 811 q 360 781 449 811 q 208 693 271 751 q 109 550 144 635 q 74 353 74 465 q 95 212 74 277 q 159 101 117 148 q 263 27 201 53 q 405 1 325 1 q 532 14 472 1 q 540 18 532 16 q 558 23 549 20 q 577 28 568 26 q 587 31 586 31 q 644 60 618 42 q 697 88 669 77 m 533 51 q 410 82 464 51 q 318 163 355 113 q 261 276 280 213 q 242 402 242 339 q 253 530 242 462 q 292 655 264 598 q 369 749 321 712 q 492 787 417 787 q 657 728 610 787 q 704 557 704 670 q 706 468 704 520 q 707 359 708 416 q 698 248 705 303 q 673 148 692 192 q 621 78 654 105 q 533 51 587 51 m 516 945 q 553 860 516 888 q 643 832 590 832 q 720 847 683 832 q 784 894 757 863 l 784 895 q 759 897 773 895 q 734 905 744 898 q 719 864 732 881 q 679 847 707 847 q 595 884 626 847 q 563 972 563 922 q 566 999 563 990 q 573 1012 568 1008 q 588 1015 579 1015 q 615 1015 598 1015 q 644 1015 622 1015 q 690 1016 666 1015 q 732 1017 713 1017 q 751 1017 751 1017 l 791 1021 l 795 1025 q 775 1023 784 1025 q 755 1022 766 1022 q 713 1072 740 1059 q 650 1086 687 1086 q 550 1047 583 1086 q 516 945 516 1008 m 644 1078 q 681 1067 665 1078 q 697 1032 697 1056 l 697 1025 q 684 1021 694 1021 q 630 1020 657 1021 q 577 1020 604 1020 l 573 1020 q 597 1060 573 1043 q 644 1078 622 1078 "},"Œ":{"x_min":30.4375,"x_max":387.53125,"ha":447,"o":"m 387 1008 l 215 938 q 129 861 166 908 q 69 759 93 815 q 36 640 45 702 q 33 516 26 577 l 188 580 q 190 700 181 638 q 222 817 198 761 q 288 922 247 873 q 387 1008 329 972 "},"T":{"x_min":20.875,"x_max":988.671875,"ha":1024,"o":"m 149 176 q 307 33 215 73 q 519 -6 399 -6 q 578 0 538 -6 q 668 20 619 7 q 769 49 717 32 q 862 86 820 66 q 932 128 905 106 q 959 170 959 149 l 959 171 q 916 174 940 170 q 870 183 892 177 q 833 192 848 188 q 819 197 819 197 q 811 173 819 197 q 783 120 803 149 q 726 67 762 91 q 634 44 690 44 q 499 72 565 44 q 380 149 433 101 q 296 262 328 198 q 265 397 265 326 q 287 564 265 495 q 354 674 309 632 q 469 735 399 717 q 635 754 540 754 q 696 753 659 754 q 770 743 734 751 q 832 716 806 735 q 858 662 858 697 q 855 637 858 650 q 851 611 852 623 l 852 611 q 918 714 884 664 q 988 814 952 764 q 720 779 859 779 q 596 779 663 779 q 462 783 530 779 q 328 797 394 787 q 209 825 263 807 l 199 839 l 219 890 l 216 895 q 165 852 198 878 q 100 801 133 826 q 44 759 68 776 q 20 742 20 742 q 43 744 20 742 q 99 750 66 747 q 167 755 131 753 q 230 758 204 758 l 383 758 q 404 757 394 758 q 426 754 415 755 l 426 753 q 290 688 349 721 q 190 610 231 655 q 128 502 149 565 q 107 351 107 440 q 120 262 107 304 q 149 177 134 220 l 149 176 "},"a":{"x_min":74,"x_max":918.515625,"ha":990,"o":"m 697 88 q 696 50 697 69 q 692 12 694 31 q 690 1 692 9 q 694 -5 687 -7 q 837 6 764 9 l 918 5 l 918 7 q 876 39 892 10 q 850 111 860 67 q 836 207 840 155 q 831 308 832 259 q 831 400 831 358 q 832 465 832 442 q 831 514 832 488 q 832 563 829 540 q 834 610 833 584 q 837 662 835 635 q 844 713 839 688 q 857 756 849 737 q 877 788 867 777 q 906 811 887 798 l 914 818 l 912 821 q 852 787 881 805 q 792 754 824 769 l 731 784 q 644 805 689 799 q 555 811 600 811 q 360 781 449 811 q 208 693 271 751 q 109 550 144 635 q 74 353 74 465 q 95 212 74 277 q 159 101 117 148 q 263 27 201 53 q 405 1 325 1 q 532 14 472 1 q 540 18 532 16 q 558 23 549 20 q 577 28 568 26 q 587 31 586 31 q 644 60 618 42 q 697 88 669 77 m 533 51 q 410 82 464 51 q 318 163 355 113 q 261 276 280 213 q 242 402 242 339 q 253 530 242 462 q 292 655 264 598 q 369 749 321 712 q 492 787 417 787 q 657 728 610 787 q 704 557 704 670 q 706 468 704 520 q 707 360 708 416 q 698 248 705 303 q 673 148 692 192 q 621 78 654 105 q 533 51 587 51 "},"—":{"x_min":2.78125,"x_max":521.015625,"ha":632,"o":"m 509 468 q 493 495 502 483 q 472 519 484 508 l 326 459 q 350 435 341 447 q 365 409 359 423 q 375 346 376 380 q 362 279 373 312 q 331 220 351 247 q 286 177 311 193 l 288 172 l 433 230 q 478 272 458 245 q 509 333 498 300 q 520 402 519 366 q 509 468 522 437 m 252 429 q 218 472 241 455 q 155 494 195 488 l 2 431 q 74 410 50 426 q 108 370 98 394 q 100 270 126 326 q 8 170 73 215 l 180 240 q 222 279 205 256 q 250 328 240 302 q 261 379 259 354 q 252 429 262 405 "},"=":{"x_min":18.0625,"x_max":711.171875,"ha":760,"o":"m 711 465 l 218 465 l 62 401 l 555 401 l 711 465 m 644 298 l 173 298 l 18 234 l 488 234 l 644 298 "},"N":{"x_min":27.78125,"x_max":933.40625,"ha":968,"o":"m 815 430 q 815 483 815 448 q 815 560 815 517 q 816 650 815 604 q 819 737 816 697 q 827 808 822 777 q 838 850 832 838 q 814 838 837 850 q 763 813 791 827 q 711 787 736 800 q 680 772 686 775 q 686 744 688 759 q 680 716 683 729 q 641 729 659 719 q 604 747 623 740 q 316 797 462 791 q 27 779 170 804 q 50 734 41 763 q 62 669 58 704 q 67 601 66 634 q 68 548 68 568 l 68 439 q 63 207 68 322 q 41 -22 58 93 q 105 -8 73 -12 q 169 -1 137 -3 q 234 0 201 0 q 300 4 266 1 q 223 100 252 51 q 195 218 194 148 l 195 515 q 196 566 195 528 q 198 649 197 605 q 202 729 200 693 q 206 769 204 765 q 305 756 251 769 q 413 719 359 743 q 518 663 468 696 q 609 589 569 630 q 672 501 648 548 q 695 403 695 454 q 686 191 695 297 q 676 -17 676 86 l 676 -22 q 729 -14 694 -18 q 802 -9 763 -11 q 876 -6 840 -7 q 933 -6 912 -6 l 933 -1 q 854 78 879 27 q 820 190 829 130 q 813 314 811 251 q 815 430 815 377 "},"2":{"x_min":49.796875,"x_max":600,"ha":718,"o":"m 527 683 l 527 684 l 526 684 q 525 683 525 684 q 523 683 525 683 l 527 683 m 600 118 q 554 115 576 116 q 511 107 531 114 l 509 109 q 344 87 426 101 q 180 71 263 73 q 189 76 185 71 q 194 86 192 82 q 297 154 252 123 q 382 218 342 184 q 458 292 422 251 q 534 391 494 333 q 540 398 537 387 q 544 411 544 408 q 568 465 561 432 q 575 526 575 498 q 552 633 575 582 q 492 721 530 683 q 403 783 454 760 q 298 806 353 806 q 227 794 263 806 q 188 739 203 769 q 158 678 173 710 q 235 690 194 689 q 315 692 276 692 l 395 661 q 395 657 394 661 q 399 657 397 654 q 429 625 417 644 q 445 584 440 605 q 452 539 451 562 q 454 497 454 516 q 408 362 454 428 q 297 238 362 297 q 164 128 233 179 q 49 37 95 77 l 55 25 l 241 21 l 359 21 q 422 12 390 21 q 485 -4 455 4 q 542 -22 515 -13 q 590 -30 569 -30 l 593 -12 q 591 52 591 19 q 600 118 591 86 m 451 83 l 448 83 l 451 83 "},"j":{"x_min":38.890625,"x_max":280.921875,"ha":344,"o":"m 47 -229 l 51 -231 q 93 -187 70 -210 q 133 -142 115 -165 l 133 -140 q 218 -12 187 -87 q 263 151 248 63 q 279 336 277 240 q 279 525 281 431 q 275 707 277 619 q 280 867 273 794 q 190 818 234 840 q 98 776 147 796 q 85 773 93 773 q 75 766 77 772 q 55 760 63 764 q 38 753 47 757 q 109 707 87 734 q 137 646 130 680 q 142 571 144 612 q 140 484 140 530 q 141 345 140 418 q 142 199 143 272 q 136 54 141 126 q 118 -82 131 -16 q 93 -158 109 -118 q 50 -226 76 -199 l 47 -229 "},"ü":{"x_min":30.28125,"x_max":982.28125,"ha":1058,"o":"m 40 298 q 60 182 40 237 q 119 87 81 127 q 209 23 156 47 q 324 0 262 0 q 436 14 377 0 q 551 51 494 29 q 661 101 608 73 q 759 158 715 129 q 758 125 759 149 q 755 75 757 101 q 753 28 754 49 q 754 4 752 8 q 833 10 794 4 q 912 17 872 17 q 947 15 930 17 q 980 15 964 13 l 982 17 q 940 33 955 20 q 916 62 925 45 q 906 101 908 80 q 904 145 904 123 q 910 313 904 229 q 923 480 915 397 q 936 647 930 564 q 942 814 942 731 l 939 816 q 868 813 904 819 q 797 808 832 808 q 769 809 790 808 q 725 812 748 811 q 681 814 701 814 q 659 811 662 814 q 696 770 676 790 q 733 728 716 750 q 761 682 750 707 q 772 629 772 658 q 775 511 772 573 q 775 388 777 450 q 759 271 772 327 q 716 172 747 215 q 634 104 686 130 q 498 79 581 79 q 376 104 433 79 q 277 174 319 130 q 211 275 235 218 q 187 398 187 333 q 196 534 187 479 q 230 635 206 590 q 292 720 253 680 q 391 811 331 761 l 389 815 q 214 808 302 807 q 38 816 125 809 l 30 811 l 38 807 q 105 761 77 787 q 134 687 134 734 q 119 601 134 647 q 87 506 105 555 q 54 404 69 457 q 40 298 40 352 m 509 945 q 546 860 509 888 q 636 832 583 832 q 713 848 676 832 q 778 894 750 864 l 778 895 q 752 897 766 895 q 728 905 737 898 q 712 864 725 882 q 672 847 700 847 q 588 884 619 847 q 557 972 557 922 q 559 999 557 990 q 566 1012 561 1008 q 582 1015 572 1015 q 608 1015 593 1015 q 637 1015 615 1015 q 683 1016 659 1015 q 725 1017 707 1017 q 744 1017 744 1017 l 786 1021 l 790 1025 q 769 1023 779 1025 q 748 1022 759 1022 q 707 1072 733 1059 q 643 1086 680 1086 q 543 1047 576 1086 q 509 945 509 1008 m 637 1078 q 674 1067 658 1078 q 690 1032 690 1056 l 690 1025 q 677 1021 687 1021 q 623 1020 650 1021 q 570 1020 597 1020 l 566 1020 q 573 1041 566 1031 q 591 1060 580 1051 q 614 1073 602 1068 q 637 1078 626 1078 "},"Z":{"x_min":0,"x_max":812.5625,"ha":842,"o":"m 637 -93 q 623 -144 637 -119 q 629 -143 626 -145 q 633 -141 632 -141 q 718 -20 670 -75 q 812 90 765 33 l 812 94 q 797 89 809 94 q 770 78 786 84 q 738 66 754 72 q 713 59 722 61 q 588 44 651 50 q 462 38 525 38 q 360 40 411 38 q 258 47 309 41 l 256 51 q 271 81 256 51 q 311 160 286 111 q 370 272 337 209 q 440 402 402 336 q 516 533 477 468 q 592 651 555 598 q 661 739 629 704 q 718 782 694 775 l 713 783 q 654 780 702 783 q 540 777 607 777 q 399 779 473 776 q 261 796 325 783 q 154 834 197 809 q 108 900 111 859 l 104 900 q 59 766 84 827 q 0 638 34 705 l 0 637 q 90 699 41 676 q 192 733 140 722 q 300 747 244 744 q 409 751 355 751 l 493 751 l 494 747 q 469 679 494 730 q 404 557 444 627 q 312 406 363 487 q 207 246 261 325 q 103 101 154 168 q 13 -5 52 34 q 104 -2 45 -5 q 231 4 162 1 q 373 5 301 6 q 504 -5 445 4 q 600 -36 562 -15 q 637 -93 637 -56 "},"u":{"x_min":30.28125,"x_max":982.28125,"ha":1071,"o":"m 40 298 q 60 182 40 237 q 119 87 81 127 q 209 23 156 47 q 324 0 262 0 q 436 14 377 0 q 551 51 494 29 q 661 101 608 73 q 759 158 715 129 q 758 125 759 149 q 755 75 757 101 q 753 28 754 49 q 754 4 752 8 q 833 10 794 4 q 912 17 872 17 q 947 15 930 17 q 980 15 964 13 l 982 17 q 940 33 955 20 q 916 62 925 45 q 906 101 908 80 q 904 145 904 123 q 910 313 904 230 q 923 481 915 397 q 936 648 930 564 q 942 815 942 732 l 939 816 q 868 818 904 819 q 797 818 832 818 q 770 818 790 818 q 725 817 749 818 q 682 815 701 816 q 660 811 662 813 q 696 770 676 790 q 733 728 717 749 q 761 682 750 706 q 772 629 772 658 q 771 522 772 581 q 762 401 770 462 q 737 282 754 340 q 690 179 721 224 q 613 106 660 134 q 498 79 566 79 q 376 104 433 79 q 277 174 319 130 q 211 275 235 218 q 187 398 187 333 q 196 534 187 479 q 230 635 206 590 q 292 720 253 680 q 391 811 331 761 l 389 815 q 214 808 302 806 q 38 816 125 809 l 30 811 l 38 806 q 105 761 77 787 q 134 687 134 734 q 119 601 134 647 q 87 506 105 555 q 54 404 69 456 q 40 298 40 352 "},"1":{"x_min":58.34375,"x_max":333.359375,"ha":433,"o":"m 333 854 l 329 855 l 331 852 l 333 854 m 288 288 l 284 288 l 284 284 l 286 284 q 287 287 287 284 l 288 288 m 309 773 l 295 780 l 236 773 q 225 779 231 776 q 213 780 218 783 l 190 808 l 163 819 l 104 757 q 93 754 101 757 q 78 747 86 751 q 64 739 70 743 q 58 734 58 736 l 70 715 q 131 696 102 709 q 183 659 159 683 q 179 429 184 543 q 163 198 173 315 l 162 194 q 111 43 136 119 q 69 -108 86 -33 l 88 -113 q 180 -11 126 -55 q 288 73 234 33 l 283 169 q 273 207 275 187 q 274 247 272 227 q 278 286 276 266 q 279 323 280 305 q 285 379 284 351 q 281 433 286 406 l 284 437 q 286 606 281 526 q 309 773 291 686 m 134 -120 l 134 -116 l 133 -116 l 133 -120 l 134 -120 m 118 -122 l 116 -120 l 116 -123 l 118 -122 "},"k":{"x_min":-1.453125,"x_max":894.265625,"ha":926,"o":"m 109 0 l 111 -1 q 204 12 156 14 q 294 10 252 11 q 280 194 292 101 q 267 378 267 286 q 269 394 267 385 q 273 410 270 403 l 299 425 q 342 381 323 405 q 379 331 362 357 q 414 279 397 305 q 452 230 431 253 l 452 229 q 508 151 477 187 q 572 76 540 114 l 572 74 q 599 35 590 58 q 628 -1 609 12 q 694 5 662 4 q 760 5 727 5 q 827 5 794 5 q 894 8 860 5 q 822 46 863 14 q 734 128 780 79 q 642 235 688 176 q 558 351 597 294 q 490 457 519 408 q 449 536 460 507 q 482 566 455 544 q 548 615 509 587 q 633 673 587 643 q 720 732 678 704 q 795 783 762 761 q 844 815 828 805 l 844 816 l 844 818 q 728 809 785 818 q 612 801 670 801 q 574 802 592 801 q 535 807 555 803 q 558 767 549 788 q 567 723 567 746 q 550 676 567 702 q 506 623 533 650 q 445 569 478 596 q 379 518 412 542 q 317 475 347 494 q 272 445 288 456 q 263 631 263 538 q 267 868 263 748 q 294 1101 272 988 l 281 1103 q 262 1095 274 1103 q 242 1084 249 1087 q 190 1071 217 1076 q 138 1062 163 1066 q 75 1050 106 1057 q 12 1043 44 1043 l -1 1043 l 2 1039 q 37 1014 15 1029 q 81 981 59 998 q 120 945 104 964 q 137 910 137 926 q 140 658 137 784 q 143 406 143 532 q 137 202 143 304 q 109 0 131 100 "},"ä":{"x_min":74,"x_max":918.515625,"ha":993,"o":"m 697 88 q 696 50 697 69 q 692 12 694 31 q 690 1 692 9 q 694 -5 687 -7 q 837 6 764 9 l 918 5 l 918 7 q 876 39 892 10 q 850 111 860 67 q 836 207 840 155 q 831 308 832 259 q 831 400 831 358 q 832 465 832 442 q 831 514 832 488 q 832 563 829 540 q 834 610 833 584 q 837 662 835 635 q 844 713 839 688 q 857 756 849 737 q 882 782 867 777 q 915 799 897 787 l 914 817 l 912 820 q 852 787 881 805 q 792 754 824 769 l 731 784 q 644 805 689 799 q 555 811 600 811 q 360 781 449 811 q 208 693 271 751 q 109 550 144 635 q 74 353 74 465 q 95 212 74 277 q 159 101 117 148 q 263 27 201 53 q 405 1 325 1 q 532 14 472 1 q 540 18 532 16 q 558 23 549 20 q 577 28 568 26 q 587 31 586 31 q 644 60 618 42 q 697 88 669 77 m 533 51 q 410 82 464 51 q 318 163 355 113 q 261 276 280 213 q 242 402 242 339 q 253 530 242 462 q 292 655 264 598 q 369 749 321 712 q 492 787 417 787 q 657 728 610 787 q 704 557 704 670 q 706 468 704 520 q 707 359 708 416 q 698 248 705 303 q 673 148 692 192 q 621 78 654 105 q 533 51 587 51 m 516 945 q 553 860 516 888 q 643 832 590 832 q 720 847 683 832 q 784 894 757 863 l 784 895 q 759 897 773 895 q 734 905 744 898 q 719 864 732 881 q 679 847 707 847 q 595 884 626 847 q 563 972 563 922 q 566 999 563 990 q 573 1012 568 1008 q 588 1015 579 1015 q 615 1015 598 1015 q 644 1015 622 1015 q 690 1016 666 1015 q 732 1017 713 1017 q 751 1017 751 1017 l 791 1021 l 795 1025 q 775 1023 784 1025 q 755 1022 766 1022 q 713 1072 740 1059 q 650 1086 687 1086 q 550 1047 583 1086 q 516 945 516 1008 m 644 1078 q 681 1067 665 1078 q 697 1032 697 1056 l 697 1025 q 684 1021 694 1021 q 630 1020 657 1021 q 577 1020 604 1020 l 573 1020 q 597 1060 573 1043 q 644 1078 622 1078 "},"£":{"x_min":4.171875,"x_max":827.84375,"ha":824,"o":"m 827 34 q 766 90 808 68 q 670 125 725 112 q 554 140 616 137 q 429 140 491 144 q 312 125 368 136 q 216 98 256 113 q 296 198 261 141 q 356 320 331 255 q 477 320 436 320 q 537 320 519 320 q 559 320 556 320 q 561 319 561 319 l 748 402 q 741 402 748 402 q 699 400 734 401 q 589 396 663 398 q 381 393 515 394 q 402 472 393 433 q 416 548 411 511 q 433 625 423 588 q 462 691 443 662 q 556 667 512 688 q 637 601 601 645 l 805 669 q 677 761 745 741 q 525 748 609 782 l 523 747 l 343 675 q 295 643 313 662 q 265 597 276 623 q 247 542 254 572 q 236 481 240 512 q 227 437 231 459 q 218 391 223 415 l 195 391 l 13 318 q 111 318 66 318 q 197 319 156 319 q 122 148 169 230 q 4 5 75 66 l 45 22 q 140 49 86 38 q 256 63 195 59 q 377 63 316 66 q 489 47 437 59 q 581 13 541 34 q 640 -40 622 -8 l 827 34 "},"<":{"x_min":-20.828125,"x_max":423.640625,"ha":432,"o":"m 423 690 l 258 623 l 45 426 l -20 352 l -19 349 l 68 298 l 233 164 l 400 232 l 226 368 l 141 413 l 204 484 l 423 690 "},"¬":{"x_min":65.96875,"x_max":1008.40625,"ha":1083,"o":"m 1008 618 q 873 609 927 612 q 783 602 819 605 q 853 635 819 618 q 914 676 887 652 q 959 731 941 699 q 982 805 977 762 q 988 837 983 822 q 986 870 993 852 q 957 913 976 894 q 916 949 938 933 q 868 977 893 965 q 820 997 843 988 q 753 1007 788 1011 q 683 990 718 1004 l 577 947 q 551 934 563 941 q 526 920 538 927 q 515 952 522 934 q 472 994 502 983 q 406 1005 443 1005 q 333 996 370 1005 q 268 976 295 987 l 169 936 q 171 1006 170 979 q 172 1034 172 1034 l 77 995 q 76 965 77 995 q 74 890 75 934 q 72 793 73 845 q 72 697 72 740 q 70 657 72 676 q 66 620 68 638 q 66 586 65 602 q 75 551 68 569 l 76 548 l 175 587 q 168 631 170 598 q 165 709 165 665 q 165 804 165 754 q 168 899 166 854 l 172 901 q 226 949 198 930 q 281 959 252 956 q 336 958 311 962 q 382 943 362 955 q 411 909 402 931 q 427 845 423 880 q 426 837 423 841 q 429 836 429 833 q 430 767 431 802 q 425 697 429 731 q 418 627 422 662 q 415 562 415 593 l 523 606 q 527 672 523 637 q 533 742 530 706 q 536 813 536 777 q 533 883 537 849 q 577 922 552 902 q 630 958 601 941 q 715 951 676 966 q 761 931 736 943 q 809 904 786 919 q 850 870 832 888 q 879 827 869 851 q 882 797 886 812 q 876 766 879 783 q 839 664 870 701 q 761 601 808 627 q 713 599 727 600 q 695 598 698 598 q 694 598 694 598 l 590 553 q 593 553 590 553 q 614 556 597 554 q 668 561 632 558 l 666 559 l 668 557 l 680 561 q 771 567 716 564 q 909 578 826 571 l 1008 618 m 824 31 q 729 44 772 31 q 646 81 685 58 q 572 133 607 104 q 504 194 538 162 q 454 242 481 217 q 396 281 428 268 q 468 320 429 296 q 545 371 506 344 q 624 424 585 397 q 696 471 663 450 l 777 504 q 734 506 756 507 q 693 502 713 504 q 654 499 672 500 q 620 504 635 499 l 518 464 q 583 458 550 453 q 647 461 616 462 l 620 449 q 596 439 607 444 q 532 399 567 422 q 461 350 497 375 q 386 301 424 325 q 316 257 349 276 q 317 383 316 319 q 320 497 318 446 q 322 581 321 549 q 324 614 324 614 l 223 574 q 221 531 223 574 q 218 423 220 487 q 215 284 216 358 q 215 147 215 210 q 212 103 215 124 q 209 65 210 83 q 209 27 208 46 q 219 -10 210 8 l 220 -13 l 325 29 q 318 93 320 42 q 316 212 316 144 q 356 179 338 197 q 392 146 375 161 q 460 84 425 114 q 532 31 495 54 q 611 -5 570 8 q 700 -19 653 -19 l 824 31 "},"t":{"x_min":20.875,"x_max":988.671875,"ha":1024,"o":"m 149 176 q 307 33 215 73 q 519 -6 399 -6 q 578 0 538 -6 q 668 18 619 6 q 769 46 717 30 q 862 82 820 63 q 932 124 905 102 q 959 170 959 146 l 959 171 q 887 175 922 169 q 819 197 852 181 q 801 165 810 190 q 774 112 792 140 q 722 64 755 85 q 634 44 690 44 q 499 72 565 44 q 380 149 433 101 q 296 262 328 198 q 265 397 265 326 q 287 564 265 495 q 354 674 309 632 q 469 735 399 717 q 635 754 540 754 q 696 753 659 754 q 770 743 734 751 q 832 716 806 735 q 858 662 858 697 q 855 637 858 650 q 851 611 852 623 l 852 611 q 918 714 884 664 q 988 814 952 764 q 720 779 859 779 q 596 779 663 779 q 462 783 530 779 q 328 797 394 787 q 209 825 263 807 l 199 839 l 219 890 l 216 895 q 170 858 198 878 q 112 817 141 838 q 57 776 83 796 q 20 742 32 757 q 125 750 73 742 q 230 758 177 758 l 383 758 q 404 757 394 758 q 426 754 415 755 l 426 753 q 290 688 349 721 q 190 610 231 655 q 128 502 149 565 q 107 351 107 440 q 120 262 107 304 q 149 177 134 220 l 149 176 "},"W":{"x_min":26.390625,"x_max":1452.890625,"ha":1539,"o":"m 1452 762 q 1314 775 1382 771 q 1176 779 1247 779 l 1168 779 q 1198 752 1180 765 q 1234 723 1216 739 q 1263 691 1251 708 q 1276 654 1276 675 q 1266 548 1276 607 q 1240 426 1255 489 q 1207 304 1225 363 q 1175 197 1190 244 q 1149 122 1159 151 q 1138 94 1138 94 q 1115 138 1138 94 q 1055 252 1091 183 q 977 405 1019 322 q 895 566 934 489 q 825 704 855 643 q 786 789 795 765 l 562 789 l 562 784 q 610 741 588 769 q 650 678 632 712 q 681 609 668 644 q 704 547 694 575 q 664 433 683 491 q 625 316 645 375 q 579 202 604 258 q 525 94 555 145 l 519 84 l 515 88 q 477 171 495 130 q 441 255 458 212 l 226 810 q 127 794 177 796 q 26 789 76 791 q 91 700 59 758 q 153 568 123 641 q 212 412 183 494 q 269 253 241 330 q 323 109 297 176 q 375 -2 350 41 q 472 0 423 -2 q 569 1 520 2 l 554 27 l 744 445 l 747 448 l 755 445 l 997 -7 q 1101 -4 1050 -7 q 1205 -2 1152 -1 q 1201 6 1204 0 q 1195 21 1198 13 q 1191 35 1193 29 q 1188 44 1188 41 q 1205 107 1188 56 q 1248 229 1222 158 q 1304 381 1273 300 q 1364 537 1336 462 q 1416 671 1393 612 q 1447 754 1439 729 l 1452 762 "},"v":{"x_min":13.890625,"x_max":943.125,"ha":1035,"o":"m 943 788 q 837 797 893 801 q 730 802 782 794 l 708 805 l 708 802 q 734 780 720 792 q 761 752 748 767 q 781 720 773 737 q 788 687 788 703 q 773 616 788 667 q 735 501 758 566 q 686 366 712 436 q 636 237 659 296 q 598 141 613 179 q 583 104 583 104 l 579 97 q 563 129 577 98 q 522 216 548 161 q 466 337 497 271 q 402 474 434 403 q 341 612 369 546 q 291 729 312 677 q 262 809 270 781 l 255 811 q 215 811 250 812 q 140 807 181 809 q 62 802 100 805 q 13 798 25 799 q 75 765 48 787 q 118 710 102 744 l 451 4 l 652 4 l 652 5 l 626 49 q 684 234 647 138 q 767 424 722 329 q 859 611 812 518 q 943 788 905 703 "},">":{"x_min":30.5625,"x_max":495.875,"ha":557,"o":"m 495 331 l 480 340 l 493 348 l 477 343 l 202 504 l 58 445 l 313 275 l 30 49 l 219 125 l 431 305 l 495 331 "},"s":{"x_min":29.015625,"x_max":776,"ha":836,"o":"m 29 168 q 54 86 29 120 q 119 29 80 51 q 203 -3 158 6 q 288 -14 248 -14 l 388 -14 q 506 0 440 -14 q 633 45 573 15 q 734 122 692 76 q 776 232 776 169 q 735 316 776 282 q 635 379 695 351 q 505 431 576 407 q 375 486 434 455 q 275 557 315 516 q 235 655 235 597 q 240 703 235 686 q 255 730 246 719 q 278 750 264 740 q 308 776 291 760 q 345 789 322 792 q 387 786 368 786 q 456 768 421 786 q 521 722 491 750 q 567 658 550 693 q 582 589 585 624 l 583 587 q 589 601 587 593 q 591 615 591 608 q 591 633 591 630 q 593 650 590 635 q 733 711 661 689 l 733 714 q 685 762 718 742 q 614 794 653 782 q 535 813 575 807 q 465 820 494 820 q 344 810 412 820 q 213 777 275 801 q 109 710 151 753 q 67 597 67 667 q 107 488 67 529 q 207 421 147 447 q 339 375 268 394 q 470 329 409 355 q 570 262 530 302 q 611 154 611 222 q 597 93 611 118 q 562 54 584 69 q 511 31 540 38 q 451 24 481 24 q 375 37 417 24 q 295 73 333 49 q 232 129 258 97 q 206 201 206 161 l 206 219 q 122 179 170 197 q 29 168 73 162 "},"B":{"x_min":62.265625,"x_max":904.34375,"ha":961,"o":"m 511 37 q 377 82 436 37 q 277 194 318 127 q 214 339 236 262 q 193 481 193 417 q 208 592 193 540 q 256 686 224 645 q 336 751 288 727 q 449 775 384 775 q 576 733 524 775 q 660 629 627 691 q 706 494 693 566 q 720 360 720 421 q 711 253 720 310 q 679 148 702 196 q 614 68 655 100 q 511 37 573 37 m 201 53 q 261 21 230 33 q 324 4 293 9 q 385 -1 355 0 q 440 -3 415 -3 q 609 26 526 -3 q 758 108 693 55 q 864 238 823 162 q 904 407 904 313 q 901 478 904 447 q 891 537 898 509 q 873 594 884 565 q 844 660 862 623 l 841 661 q 796 724 825 696 q 733 772 768 753 q 659 802 698 792 q 582 813 619 813 q 439 801 507 813 q 304 756 370 790 q 259 725 280 743 l 236 704 l 233 704 q 256 799 233 743 q 306 915 279 854 q 356 1034 333 975 q 379 1140 379 1093 q 377 1145 379 1145 q 301 1138 340 1145 q 223 1131 262 1131 l 222 1129 l 126 1132 l 125 1128 q 148 1101 134 1115 q 172 1072 161 1088 q 191 1040 183 1057 q 198 1006 198 1024 q 175 889 198 955 q 125 743 151 822 q 77 571 98 664 q 64 376 57 479 l 66 331 l 70 290 q 80 252 72 281 q 105 186 89 223 q 145 113 122 149 q 201 53 169 76 m 598 727 l 600 727 l 600 726 l 598 726 l 598 727 "},"…":{"x_min":18.0625,"x_max":1320.9375,"ha":1420,"o":"m 1320 61 q 1318 63 1320 61 q 1302 77 1315 65 q 1261 115 1288 88 q 1182 190 1233 141 l 1036 130 q 1116 52 1088 80 q 1157 11 1144 25 q 1171 -3 1169 -1 q 1173 -5 1173 -5 l 1320 61 m 765 50 l 763 55 l 661 162 l 515 103 l 622 -8 l 620 -2 l 765 50 m 283 61 q 277 65 283 61 q 245 94 272 69 q 163 173 219 119 l 18 113 q 100 30 75 56 q 129 0 126 4 q 133 -5 133 -5 l 283 61 "},"?":{"x_min":29.171875,"x_max":526.625,"ha":586,"o":"m 526 669 q 519 715 527 691 q 479 759 508 743 q 416 784 450 776 q 347 789 381 791 q 290 777 312 787 l 286 776 l 134 715 q 104 701 116 708 q 79 685 91 694 q 56 663 68 676 q 29 632 44 650 l 161 609 q 171 630 165 613 q 185 666 177 647 q 199 702 193 686 q 208 722 205 719 q 253 717 230 722 q 296 703 276 712 q 331 681 316 694 q 355 650 347 668 q 359 608 362 634 q 330 511 352 558 q 284 416 308 463 q 240 319 259 368 q 220 219 220 270 l 358 244 q 381 348 358 294 q 436 456 405 402 q 493 565 466 511 q 526 669 519 619 m 402 47 q 308 148 368 100 l 162 88 q 210 32 194 61 q 241 -18 226 4 l 402 47 "},"H":{"x_min":1.546875,"x_max":916.671875,"ha":958,"o":"m 112 951 q 115 952 114 956 q 118 941 116 948 q 120 925 119 934 q 121 911 121 916 l 125 823 l 127 589 l 127 537 q 128 478 127 522 q 129 375 129 433 q 127 255 129 318 q 123 137 126 192 q 115 46 120 83 q 102 4 110 9 l 109 4 q 205 10 156 4 q 302 16 254 17 q 274 106 283 51 q 262 222 265 162 q 260 340 259 282 q 261 440 261 399 l 261 605 q 277 682 261 648 q 322 739 294 716 q 386 774 349 762 q 462 786 422 786 q 574 757 533 786 q 636 683 615 729 q 662 580 656 637 q 668 466 668 523 q 661 234 668 349 q 654 1 654 119 q 784 8 719 2 q 916 14 850 14 l 915 23 q 862 32 883 24 q 829 55 841 39 q 813 92 818 70 q 809 144 809 114 q 817 393 809 270 q 825 641 825 516 q 806 732 825 697 q 755 786 787 766 q 681 814 723 807 q 591 821 638 821 q 458 810 517 821 q 358 788 399 800 q 294 766 316 776 q 272 755 272 755 l 263 755 q 263 772 263 758 q 261 807 262 786 q 261 843 261 829 q 266 975 261 909 q 272 1108 272 1041 l 267 1108 q 208 1085 242 1096 q 136 1062 173 1073 q 64 1045 100 1052 q 1 1038 27 1038 q 17 1025 2 1035 q 50 1001 32 1015 q 86 975 69 987 q 109 959 104 963 l 112 951 m 137 287 q 140 284 140 287 q 137 281 140 281 q 134 284 134 281 q 137 287 134 287 "},"c":{"x_min":69,"x_max":852.609375,"ha":883,"o":"m 69 348 q 98 181 69 251 q 181 68 128 112 q 308 2 234 23 q 472 -18 383 -18 q 592 -6 538 -18 q 692 31 647 5 q 777 96 738 57 q 852 191 816 136 l 851 193 q 806 192 827 190 q 766 198 785 194 q 727 205 747 201 q 687 208 708 208 l 685 208 q 670 135 683 168 q 631 72 658 103 l 631 71 q 584 37 613 46 q 526 28 555 28 q 403 68 459 28 q 306 170 347 109 q 244 301 266 232 q 222 429 222 370 q 231 540 222 481 q 263 649 240 599 q 329 732 287 699 q 438 765 372 765 q 531 749 488 765 q 607 705 574 734 q 658 634 640 676 q 677 541 677 592 l 681 539 q 705 583 687 555 q 744 639 723 610 q 788 690 766 667 q 822 720 809 713 l 820 723 q 663 786 742 762 q 497 804 584 810 l 456 801 l 445 797 l 445 798 q 162 653 255 762 q 69 348 69 544 "},"¶":{"x_min":40.28125,"x_max":504.203125,"ha":572,"o":"m 288 596 l 187 555 q 230 512 216 539 q 259 457 244 486 l 375 502 q 337 557 359 534 q 288 596 315 580 m 140 431 l 40 391 q 68 368 58 379 q 83 347 77 358 q 93 323 88 336 q 106 297 98 311 l 215 340 q 200 368 206 355 q 186 391 193 380 q 168 411 179 401 q 140 431 156 420 m 425 444 l 323 402 q 369 361 355 383 q 395 308 383 340 l 504 352 q 472 406 490 386 q 425 444 454 427 m 302 305 l 202 263 q 236 226 226 244 q 255 187 247 209 q 257 180 256 184 q 261 169 258 175 l 372 213 q 369 221 370 217 q 365 230 368 224 q 340 269 355 253 q 302 305 325 285 "},"&":{"x_min":-28.578125,"x_max":1280.65625,"ha":1282,"o":"m 1280 112 l 1133 54 q 1043 63 1090 47 q 973 100 1005 76 q 912 156 940 125 q 859 224 884 187 q 811 300 834 261 q 879 377 845 338 q 947 451 912 415 l 773 380 l 765 372 q 720 441 743 408 q 672 501 697 473 l 705 515 q 791 584 772 543 q 794 668 811 626 q 745 738 779 707 q 669 780 712 769 q 604 792 641 787 q 529 797 568 797 q 454 794 491 798 q 391 779 418 790 l 229 713 q 119 636 173 691 q 27 510 65 580 q -23 365 -9 440 q -12 229 -37 290 q 415 48 109 -75 l 576 113 q 632 141 605 125 q 684 177 659 158 q 769 64 723 115 q 879 -8 815 13 q 956 -19 919 -22 q 1027 -2 993 -16 l 1195 65 q 1229 81 1211 72 q 1280 112 1248 91 m 648 240 q 570 159 611 198 q 484 90 530 120 q 281 116 366 66 q 147 293 197 166 q 134 402 127 343 q 166 521 141 462 q 231 634 191 580 q 315 726 270 688 q 417 724 365 729 q 508 708 469 719 q 587 669 550 697 q 640 605 625 641 q 643 530 658 566 q 541 579 597 568 q 409 559 484 590 l 411 554 l 269 495 q 401 514 345 526 q 500 462 456 502 q 577 362 543 422 q 648 240 612 302 "},"I":{"x_min":8.328125,"x_max":294.46875,"ha":338,"o":"m 76 -4 l 84 -6 q 95 -5 86 -6 q 118 -3 105 -4 q 136 -1 130 -3 q 138 -2 136 -4 q 143 0 140 0 q 181 2 162 0 q 220 4 201 4 q 235 2 225 4 q 258 1 245 1 q 281 1 270 1 q 294 3 291 2 q 270 30 279 14 q 259 62 262 45 q 255 98 255 80 q 255 135 255 117 l 255 224 q 259 471 255 348 q 270 718 263 594 l 272 719 q 276 765 273 739 q 286 811 279 792 l 284 813 l 216 789 l 215 790 q 192 781 206 783 q 168 776 177 779 l 166 778 q 136 768 158 774 q 90 758 115 762 q 42 751 65 754 q 9 747 19 749 l 8 743 q 66 702 38 724 q 115 650 94 680 q 118 590 118 621 q 118 532 118 561 q 115 363 118 447 q 111 195 113 280 q 104 136 109 170 q 92 71 98 102 q 81 17 86 39 q 76 -4 76 -4 "},"•":{"x_min":100.015625,"x_max":562.546875,"ha":714,"o":"m 556 555 q 507 604 536 587 q 452 643 479 622 l 343 598 q 391 554 370 575 q 430 504 411 533 l 556 555 m 315 555 q 265 604 294 587 q 211 643 237 622 l 100 598 q 148 554 129 574 q 187 504 168 533 l 315 555 m 562 288 q 558 300 561 291 q 516 347 547 327 q 456 391 484 368 l 347 345 q 402 300 377 322 q 437 252 426 277 q 438 247 437 250 q 440 238 438 244 l 562 288 m 320 289 q 318 294 319 291 q 315 300 318 297 q 273 348 304 327 q 215 391 243 368 l 104 345 q 159 300 134 322 q 194 252 183 277 q 195 247 195 250 q 197 239 195 244 l 320 289 "},"G":{"x_min":-17.171875,"x_max":1016.453125,"ha":1053,"o":"m 30 -208 q 114 -286 59 -252 q 233 -343 169 -320 q 364 -378 298 -366 q 481 -390 430 -390 q 561 -380 510 -390 q 671 -355 612 -371 q 792 -316 730 -340 q 903 -263 853 -292 q 984 -199 952 -234 q 1016 -124 1016 -163 q 981 -69 1016 -92 q 890 -26 947 -46 q 762 12 834 -6 q 615 57 691 32 q 468 116 540 83 q 340 196 396 150 q 249 307 284 243 q 215 457 215 371 q 243 556 215 516 q 317 620 271 596 q 421 656 363 644 q 540 673 480 668 q 656 680 601 679 q 753 686 712 682 q 787 695 767 687 q 828 713 806 703 q 869 733 849 723 q 905 747 890 743 q 937 762 924 753 q 949 771 949 771 l 949 778 q 931 775 949 778 q 885 768 912 772 q 831 761 859 764 q 784 758 802 758 l 602 758 q 393 764 498 758 q 184 773 288 769 q 152 777 170 773 q 131 798 134 780 l 164 842 l 157 842 q 124 812 151 835 q 68 764 98 789 q 12 719 38 739 q -17 697 -13 698 q 176 678 74 678 q 373 676 278 679 q 274 621 328 651 q 173 552 220 590 q 93 466 125 514 q 62 361 62 419 q 87 243 62 293 q 153 156 112 193 q 246 92 194 119 q 355 43 299 65 l 355 40 q 290 -24 331 10 q 201 -92 248 -58 q 109 -155 155 -126 q 30 -208 63 -185 m 184 -125 q 243 -75 208 -104 q 310 -21 277 -47 q 366 22 343 4 q 390 40 390 40 q 424 35 390 40 q 509 19 458 30 q 619 -8 559 8 q 729 -49 679 -25 q 814 -105 780 -73 q 848 -177 848 -137 q 829 -243 848 -215 q 779 -290 809 -272 q 714 -317 750 -308 q 647 -326 679 -326 q 524 -314 593 -326 q 388 -277 455 -302 q 266 -215 322 -252 q 184 -125 211 -177 "},"(":{"x_min":13.125,"x_max":373.640625,"ha":418,"o":"m 373 801 l 223 739 q 159 648 193 694 q 97 556 126 603 q 46 458 68 509 q 19 352 25 407 q 13 216 12 287 q 20 78 13 146 q 36 -56 26 9 q 58 -181 47 -122 q 64 -208 61 -194 q 75 -236 68 -221 q 111 -290 87 -268 l 273 -225 q 250 -198 258 -211 q 234 -171 241 -185 q 222 -119 226 -146 q 200 4 211 -61 q 184 139 190 70 q 177 278 177 207 q 183 413 176 348 q 207 519 188 469 q 252 615 226 569 q 309 707 277 662 q 373 801 341 752 "},"·":{"x_min":165.296875,"x_max":665.328125,"ha":772,"o":"m 431 564 l 323 520 q 370 474 355 501 q 401 415 386 447 l 525 463 q 484 524 508 500 q 431 564 461 548 m 273 388 l 165 344 q 195 320 184 331 q 211 296 205 308 q 223 271 218 284 q 237 243 229 258 l 354 290 q 337 320 344 306 q 322 344 330 333 q 302 366 313 355 q 273 388 291 376 m 579 401 l 469 356 q 519 313 505 337 q 548 255 533 288 l 665 302 q 630 361 650 338 q 579 401 611 383 m 448 251 l 340 208 q 376 168 365 186 q 397 126 387 150 q 400 117 398 122 q 404 106 401 112 l 523 154 q 515 172 518 165 q 488 215 504 197 q 448 251 472 232 "},"U":{"x_min":30.28125,"x_max":981.5,"ha":1071,"o":"m 40 298 q 60 182 40 237 q 119 87 81 127 q 209 23 156 47 q 324 0 262 0 q 435 14 377 0 q 550 51 493 29 q 661 101 607 73 q 759 158 714 129 q 757 125 759 149 q 755 75 756 101 q 753 28 753 49 q 753 4 752 8 q 832 10 794 4 q 912 17 871 17 q 946 15 930 17 q 980 15 963 13 l 981 17 q 939 33 955 20 q 916 62 924 45 q 905 101 907 80 q 903 145 903 123 q 909 313 903 229 q 922 480 914 397 q 935 647 930 564 q 941 814 941 731 l 938 816 q 867 813 903 819 q 796 808 831 808 q 768 809 789 808 q 724 812 748 811 q 681 814 700 814 q 659 811 662 814 q 696 770 675 790 q 732 728 716 750 q 760 682 749 707 q 771 629 771 658 q 774 511 771 573 q 774 388 777 450 q 759 271 771 327 q 716 172 746 215 q 633 104 685 130 q 498 79 581 79 q 375 104 432 79 q 277 174 318 130 q 211 275 235 218 q 187 398 187 333 q 196 534 187 479 q 230 635 206 590 q 292 720 253 680 q 391 811 331 761 l 389 815 q 214 808 302 807 q 38 816 125 809 l 30 811 l 38 807 q 105 761 77 787 q 134 687 134 734 q 119 601 134 647 q 87 506 105 555 q 54 404 69 457 q 40 298 40 352 "},"F":{"x_min":-12.515625,"x_max":831.609375,"ha":863,"o":"m 127 -250 l 127 -257 q 149 -250 127 -257 q 201 -234 170 -243 q 267 -216 233 -225 q 327 -204 302 -208 q 298 -164 306 -197 q 287 -91 289 -132 q 287 -13 285 -51 q 288 44 288 24 l 288 113 l 289 115 q 433 122 366 119 q 565 133 501 124 q 694 158 630 141 q 831 206 759 174 l 831 211 q 696 208 763 211 q 563 205 630 205 q 431 209 498 205 q 296 227 364 213 q 289 271 292 238 q 283 347 285 304 q 280 440 281 391 q 277 536 278 490 q 276 619 276 581 q 276 674 276 656 q 276 713 276 694 q 280 752 277 733 q 330 770 303 763 q 384 776 357 776 q 455 769 414 776 q 535 746 496 762 q 603 706 573 730 q 644 648 632 681 q 699 715 669 687 q 762 776 730 742 l 769 783 l 769 787 q 669 821 720 806 q 566 836 619 836 q 419 822 492 836 q 274 788 346 808 q 129 745 201 767 q -12 705 58 722 q 10 690 -8 698 q 52 668 29 683 q 97 627 74 654 q 131 555 120 601 q 147 444 145 502 q 150 333 150 386 l 150 -25 q 146 -91 150 -52 q 138 -164 143 -129 q 131 -225 134 -200 q 127 -250 127 -250 "},"r":{"x_min":15,"x_max":987.296875,"ha":1022,"o":"m 556 93 q 624 51 592 69 q 689 21 656 33 q 758 1 722 8 q 840 -6 794 -6 q 912 -3 876 -6 q 985 -1 949 -1 l 987 5 l 984 8 q 876 42 923 21 q 793 87 830 62 q 724 138 756 111 q 660 192 692 165 q 590 244 627 219 q 505 289 552 269 l 505 290 q 617 337 560 317 q 719 386 674 357 q 793 462 765 415 q 822 589 822 510 q 792 684 822 642 q 717 757 762 726 q 619 804 673 788 q 517 820 565 820 q 421 813 463 820 q 342 794 378 806 q 272 771 306 783 q 201 747 238 758 q 118 728 163 736 q 15 718 73 719 q 79 663 55 688 q 116 610 103 638 q 132 549 128 583 q 135 464 135 514 q 134 353 135 408 q 130 242 133 297 l 128 240 q 123 171 127 211 q 115 94 119 130 q 108 31 110 57 q 105 5 105 5 l 106 -1 q 126 2 109 -1 q 168 9 142 5 q 212 12 194 12 q 253 11 233 12 q 295 7 274 10 l 296 8 q 278 51 284 21 q 269 115 271 80 q 268 183 267 150 q 269 236 269 217 l 271 254 l 295 255 q 358 239 321 257 q 431 194 395 221 q 501 139 467 168 q 555 93 534 111 l 556 93 m 270 282 q 267 370 266 325 q 267 459 267 415 q 267 554 267 497 q 277 663 266 611 q 317 753 288 715 q 402 791 345 791 q 504 770 459 791 q 581 715 549 750 q 630 632 613 679 q 647 529 647 585 q 618 407 647 456 q 543 329 590 359 q 437 288 496 300 q 315 277 377 277 q 292 278 303 277 q 270 282 281 279 "},":":{"x_min":31.953125,"x_max":322.25,"ha":385,"o":"m 315 409 q 250 475 287 451 q 177 526 212 498 l 31 466 q 96 407 70 434 q 147 341 122 380 l 315 409 m 322 58 q 316 73 319 66 q 295 106 309 91 q 261 135 280 120 q 222 163 243 149 q 183 193 201 177 l 37 133 q 109 72 77 101 q 156 9 141 43 q 158 2 158 6 q 161 -7 158 0 l 322 58 "},"x":{"x_min":-101.390625,"x_max":1129.25,"ha":1170,"o":"m 484 372 q 375 182 436 283 q 244 -12 315 82 q 93 -187 173 -106 q -75 -317 13 -269 l -100 -331 l -101 -333 q 14 -298 -47 -333 q 138 -208 76 -263 q 260 -85 200 -154 q 373 52 320 -16 q 468 181 426 120 q 537 283 511 243 q 562 257 547 280 q 597 202 577 234 q 642 133 616 170 q 700 65 668 97 q 772 13 733 34 q 859 -7 812 -7 q 978 13 920 -7 q 1093 56 1036 34 q 1067 58 1080 61 q 1041 49 1054 55 q 1014 38 1027 44 q 988 33 1001 33 q 920 56 955 33 q 850 115 884 79 q 782 196 815 151 q 720 286 748 241 q 670 372 693 331 q 633 438 647 412 q 670 529 641 476 q 738 630 698 581 q 822 712 777 678 q 909 747 868 747 q 948 737 932 747 q 977 714 965 728 q 998 681 988 699 q 1013 644 1007 662 q 1072 727 1041 685 q 1129 810 1102 769 l 1055 813 q 866 789 947 817 q 731 719 784 760 q 645 634 677 678 q 600 562 612 590 q 586 531 587 534 q 576 548 586 531 q 552 589 566 565 q 520 639 537 613 q 491 683 504 665 l 491 684 q 446 738 469 713 q 397 782 423 763 q 339 811 370 801 q 269 822 308 822 q 237 819 261 822 q 188 814 213 817 q 142 806 162 810 q 122 797 122 801 q 130 793 122 794 q 150 792 138 792 q 170 790 161 791 q 183 790 180 790 q 243 758 212 783 q 294 709 275 733 q 401 547 352 634 q 484 372 450 459 "},"*":{"x_min":-44.453125,"x_max":604.21875,"ha":590,"o":"m 604 834 l 434 766 q 397 740 416 752 q 356 715 377 727 q 373 813 365 763 q 395 911 381 862 l 250 851 q 234 793 241 823 q 222 731 227 763 q 172 751 197 741 q 125 776 148 762 l -20 716 q 88 665 33 685 q 202 633 144 645 q 77 570 140 601 q -44 506 13 540 l -43 501 l 100 559 q 148 586 123 573 q 200 612 173 599 q 184 532 193 572 q 165 454 176 492 l 320 516 q 331 562 326 538 q 340 609 336 585 q 379 604 359 606 q 420 599 400 602 l 579 665 q 468 676 522 670 q 363 694 415 683 q 488 760 427 726 q 604 834 548 794 "},"†":{"x_min":18.203125,"x_max":661.3125,"ha":710,"o":"m 661 606 q 657 606 661 606 q 630 605 652 606 q 558 604 607 604 q 421 604 509 604 l 421 943 l 275 885 l 275 604 l 173 604 l 18 540 l 275 540 q 274 182 275 323 q 273 -34 273 41 q 271 -146 272 -111 q 271 -187 271 -181 q 271 -194 271 -194 l 273 -199 l 422 -133 l 424 -138 q 423 -133 424 -138 q 423 -95 423 -127 q 421 7 422 -63 q 421 208 421 77 q 421 540 421 338 q 485 539 465 540 q 508 539 505 539 q 511 539 511 539 l 661 606 "},"°":{"x_min":24.0625,"x_max":557.421875,"ha":611,"o":"m 533 913 q 497 959 522 941 q 444 966 472 977 q 300 919 377 940 q 156 873 223 898 q 89 828 119 859 q 43 756 59 797 q 24 669 26 715 q 38 580 22 623 q 79 528 52 547 q 139 502 106 509 q 205 497 172 494 q 266 511 238 500 l 416 572 q 498 629 466 591 q 545 713 530 666 q 556 813 559 761 q 533 913 554 865 m 380 851 q 400 774 395 813 q 400 696 405 734 q 377 623 394 658 q 334 562 361 588 q 247 579 290 562 q 186 641 204 597 q 172 707 173 673 q 179 771 170 740 q 204 831 187 802 q 243 883 220 859 q 291 900 268 890 q 344 893 319 909 q 380 851 369 877 "},"V":{"x_min":13.890625,"x_max":943.125,"ha":1036,"o":"m 943 788 q 837 804 893 801 q 730 806 782 806 l 708 805 l 708 802 q 734 780 720 792 q 761 752 748 767 q 781 720 773 737 q 788 687 788 703 q 773 616 788 667 q 735 501 758 566 q 686 366 712 436 q 636 237 659 296 q 598 141 613 179 q 583 104 583 104 l 579 97 q 563 129 577 98 q 522 216 548 161 q 466 337 497 271 q 402 474 434 403 q 341 612 369 546 q 291 729 312 677 q 262 809 270 781 l 255 811 q 215 811 250 812 q 140 807 181 809 q 62 802 100 805 q 13 798 25 799 q 75 765 48 787 q 118 710 102 744 l 451 4 l 652 4 l 652 5 l 626 49 q 684 234 647 138 q 767 424 722 329 q 859 611 812 518 q 943 788 905 703 "},"h":{"x_min":1.546875,"x_max":916.671875,"ha":953,"o":"m 112 951 q 115 952 114 956 q 118 941 116 948 q 120 925 119 934 q 121 911 121 916 l 125 823 l 127 589 l 127 537 q 128 478 127 522 q 129 375 129 433 q 127 255 129 318 q 123 137 126 192 q 115 46 120 83 q 102 4 110 9 l 109 4 q 205 10 156 4 q 302 16 254 17 q 274 106 283 51 q 262 222 265 162 q 260 340 259 282 q 261 440 261 399 l 261 605 q 277 682 261 648 q 322 739 294 716 q 386 774 349 762 q 462 786 422 786 q 574 757 533 786 q 636 683 615 729 q 662 580 656 637 q 668 466 668 523 q 661 234 668 349 q 654 1 654 119 q 784 8 719 2 q 916 14 850 14 l 915 23 q 862 32 883 24 q 829 55 841 39 q 813 92 818 70 q 809 144 809 114 q 817 393 809 270 q 825 641 825 516 q 806 732 825 697 q 755 786 787 766 q 681 814 723 807 q 591 821 638 821 q 490 810 545 821 q 385 788 434 800 q 304 766 337 776 q 272 755 272 755 l 263 755 q 261 798 261 777 q 261 843 261 821 q 266 975 261 909 q 272 1108 272 1041 l 267 1108 q 208 1085 242 1096 q 136 1062 173 1073 q 64 1045 100 1052 q 1 1038 27 1038 q 17 1025 2 1035 q 50 1001 32 1015 q 86 975 69 987 q 109 959 104 963 l 112 951 m 137 287 q 140 284 140 287 q 137 281 140 281 q 134 284 134 281 q 137 287 134 287 "},"0":{"x_min":99,"x_max":582,"ha":728,"o":"m 582 416 q 577 481 582 441 q 561 566 572 520 q 536 656 551 611 q 499 739 520 702 q 450 799 477 776 q 389 822 422 822 q 261 782 315 822 q 171 684 207 743 q 117 554 135 625 q 99 422 99 484 q 116 286 99 343 q 160 188 133 230 q 216 115 186 145 q 274 58 247 84 q 320 6 301 31 q 341 -50 339 -18 q 429 47 386 -6 q 506 164 472 102 q 561 290 540 226 q 582 416 582 354 m 533 625 l 531 625 q 529 627 529 625 q 529 630 530 629 l 533 625 m 500 663 l 487 663 l 500 663 m 479 344 q 456 217 479 277 q 406 97 434 156 q 329 145 370 116 q 254 211 288 175 q 197 290 219 248 q 175 377 175 333 q 179 379 175 383 q 170 420 176 400 q 163 459 163 440 q 168 540 163 506 q 184 602 173 573 q 209 661 194 632 q 245 732 224 691 q 294 725 269 729 q 342 716 319 722 q 386 687 366 711 q 421 629 406 663 q 447 553 435 594 q 465 472 458 512 q 475 399 472 433 q 479 344 479 365 m 362 379 l 359 379 l 362 379 m 354 376 l 354 379 l 354 376 "},".":{"x_min":29.171875,"x_max":250.015625,"ha":310,"o":"m 250 29 l 248 34 q 216 87 236 65 q 173 138 197 110 l 29 79 q 68 21 55 47 q 91 -35 80 -4 l 250 29 "},"”":{"x_min":-26.390625,"x_max":502.8125,"ha":533,"o":"m 502 375 q 495 374 502 375 q 452 374 488 374 q 342 373 418 374 q 129 372 266 372 l -26 309 q 193 309 116 309 q 305 308 270 308 q 345 307 340 308 q 350 307 350 307 l 502 375 "},"@":{"x_min":24.953125,"x_max":908.03125,"ha":964,"o":"m 893 747 l 891 750 l 891 751 q 819 829 869 804 q 709 861 769 855 q 586 858 648 868 q 477 830 525 848 l 329 769 q 163 659 231 730 q 59 498 94 588 q 25 304 23 408 q 69 95 26 201 q 150 6 93 37 q 279 -34 208 -25 q 427 -34 351 -44 q 561 -1 502 -25 l 711 59 q 754 80 734 68 q 798 113 775 93 l 633 47 q 628 43 630 44 q 623 38 626 41 q 493 25 565 26 q 353 38 420 25 q 233 79 286 51 q 161 155 180 108 q 128 341 123 248 q 168 516 133 433 q 265 669 204 600 q 404 786 327 738 q 513 800 451 797 q 635 792 576 802 q 741 757 694 782 q 805 688 787 732 q 809 622 816 662 q 787 542 802 583 q 753 463 772 501 q 720 404 734 426 q 707 384 713 394 q 691 365 700 375 q 666 532 677 455 q 636 694 655 609 l 470 627 q 472 613 472 620 q 473 601 472 608 l 388 568 q 322 517 352 552 q 271 437 291 481 q 245 347 251 393 q 255 266 240 301 q 327 230 277 209 l 483 293 q 522 319 500 298 q 527 279 525 300 q 533 238 530 259 l 698 305 q 790 370 743 333 q 865 456 837 408 q 889 518 879 480 q 904 597 900 555 q 907 679 909 638 q 893 747 904 719 m 495 461 q 462 386 484 425 q 415 316 440 348 q 409 329 412 320 q 400 384 400 354 q 408 447 400 415 q 431 509 416 479 q 466 565 445 540 q 477 559 475 562 l 479 561 l 495 461 "},"f":{"x_min":-12.515625,"x_max":831.609375,"ha":863,"o":"m 127 -250 l 127 -257 q 226 -225 176 -240 q 327 -204 277 -211 q 298 -164 306 -197 q 287 -91 289 -132 q 287 -13 285 -51 q 288 44 288 24 l 288 113 l 289 115 q 433 122 366 119 q 565 133 501 124 q 694 158 630 141 q 831 206 759 174 l 831 211 q 696 208 763 211 q 563 205 630 205 q 431 209 498 205 q 296 227 364 213 q 289 271 292 238 q 283 347 285 304 q 280 440 281 391 q 277 536 278 490 q 276 619 276 581 q 276 674 276 656 q 276 713 276 694 q 280 752 277 733 q 330 770 303 763 q 384 776 357 776 q 455 769 414 776 q 535 746 496 762 q 603 706 573 730 q 644 648 632 681 q 699 715 669 687 q 762 776 730 742 l 769 783 l 769 787 q 669 821 720 806 q 566 836 619 836 q 419 822 492 836 q 274 788 346 808 q 129 745 201 767 q -12 705 58 722 q 10 690 -8 698 q 52 668 29 683 q 97 627 74 654 q 131 555 120 601 q 147 444 145 502 q 150 333 150 386 l 150 -25 q 140 -137 148 -79 q 127 -250 133 -195 "},";":{"x_min":44.453125,"x_max":368.078125,"ha":425,"o":"m 368 390 q 354 399 368 390 q 322 423 341 408 q 284 461 304 438 q 250 511 263 483 l 104 452 q 136 400 118 423 q 171 361 155 377 q 198 335 187 344 q 209 326 209 326 l 368 390 m 320 59 q 293 104 311 83 q 250 148 276 126 l 105 88 q 150 43 133 65 q 175 1 166 22 q 183 -63 187 -30 q 161 -128 179 -95 q 112 -193 143 -161 q 44 -256 81 -225 l 213 -188 q 272 -131 247 -161 q 313 -70 298 -101 q 331 -6 329 -38 q 320 59 334 26 "},"“":{"x_min":18.0625,"x_max":1320.9375,"ha":1420,"o":"m 1320 61 q 1318 63 1320 61 q 1302 77 1315 65 q 1261 115 1288 88 q 1182 190 1233 141 l 1036 130 q 1116 52 1088 80 q 1157 11 1144 25 q 1171 -3 1169 -1 q 1173 -5 1173 -5 l 1320 61 m 765 50 l 763 55 l 661 162 l 515 103 l 622 -8 l 620 -2 l 765 50 m 283 61 q 277 65 283 61 q 245 94 272 69 q 163 173 219 119 l 18 113 q 100 30 75 56 q 129 0 126 4 q 133 -5 133 -5 l 283 61 "},"ö":{"x_min":29,"x_max":891,"ha":956,"o":"m 29 396 q 49 259 29 329 q 108 130 69 189 q 207 35 148 72 q 344 -1 266 -1 q 546 19 448 -1 q 721 87 644 39 q 844 216 797 135 q 891 419 891 297 q 790 725 891 619 q 489 831 690 831 q 302 802 387 831 q 157 718 218 774 q 63 582 97 662 q 29 396 29 501 m 190 450 q 199 570 190 508 q 236 686 209 633 q 310 772 263 738 q 430 807 356 807 q 531 784 487 807 q 607 723 575 761 q 662 636 640 686 q 698 534 685 587 q 718 429 712 482 q 724 332 724 376 q 717 229 724 282 q 688 135 710 177 q 628 66 666 93 q 527 39 590 39 q 386 76 448 39 q 279 173 323 114 q 212 305 235 232 q 190 450 190 379 m 515 945 q 552 860 515 888 q 641 832 588 832 q 718 848 682 832 q 783 894 755 864 l 783 895 q 757 897 772 895 q 733 905 743 898 q 718 864 730 882 q 677 847 705 847 q 593 884 625 847 q 562 972 562 922 q 564 999 562 990 q 572 1012 566 1008 q 587 1015 577 1015 q 613 1015 598 1015 q 643 1015 620 1015 q 688 1016 665 1015 q 730 1017 712 1017 q 750 1017 750 1017 l 791 1021 l 795 1025 q 775 1023 784 1025 q 754 1022 765 1022 q 712 1072 738 1059 q 648 1086 686 1086 q 548 1047 581 1086 q 515 945 515 1008 m 643 1078 q 679 1067 663 1078 q 695 1032 695 1056 l 695 1025 q 683 1021 693 1021 q 629 1020 655 1021 q 576 1020 602 1020 l 572 1020 q 596 1060 572 1043 q 643 1078 620 1078 "},"i":{"x_min":8.328125,"x_max":294.46875,"ha":338,"o":"m 90 -4 q 93 -5 90 -4 q 98 -6 95 -6 q 117 -5 106 -6 q 136 -1 127 -4 q 138 -2 136 -4 q 143 0 140 0 q 181 2 162 0 q 220 4 201 4 q 235 2 225 4 q 258 1 245 1 q 281 1 270 1 q 294 3 291 2 q 270 30 279 14 q 259 62 262 45 q 255 98 255 80 q 255 135 255 117 l 255 224 q 259 471 255 348 q 270 718 263 594 l 272 719 q 276 765 273 739 q 286 811 279 792 l 284 813 l 216 789 l 215 790 q 192 781 206 783 q 168 776 177 779 l 166 778 q 136 768 158 774 q 90 758 115 762 q 42 751 65 754 q 9 747 19 749 l 8 743 q 66 702 38 724 q 115 650 94 680 q 118 590 118 621 q 118 532 118 561 q 115 363 118 447 q 111 195 113 280 q 106 136 109 170 q 99 71 102 102 q 93 17 95 39 q 90 -4 90 -4 "},"6":{"x_min":50,"x_max":638.984375,"ha":764,"o":"m 638 835 l 638 854 l 568 864 q 437 840 501 864 q 316 775 373 817 q 209 679 258 733 q 125 562 161 624 q 70 433 90 500 q 50 304 50 367 q 70 184 50 243 q 129 78 91 125 q 219 2 166 31 q 337 -26 272 -26 q 434 3 393 -26 q 502 76 475 32 q 542 174 529 121 q 556 272 556 226 q 509 415 556 356 q 393 508 462 475 q 378 510 391 508 q 344 513 365 513 q 309 508 324 513 q 274 489 288 501 q 250 460 261 476 q 231 426 240 443 q 209 393 222 408 l 212 375 q 277 378 251 376 q 324 375 302 379 q 367 359 345 371 q 418 324 388 347 q 439 288 431 304 q 452 254 447 271 q 460 218 456 238 q 468 175 463 199 q 462 171 463 175 q 463 168 461 167 q 440 97 458 128 q 397 38 423 65 l 297 35 q 186 165 215 90 q 157 335 157 240 q 166 403 157 371 q 186 475 175 435 q 195 508 191 494 q 207 540 198 521 q 249 617 225 585 q 297 675 273 649 q 454 783 363 747 q 638 835 544 818 m 565 183 l 565 184 l 563 184 l 563 183 l 565 183 m 369 347 q 369 347 369 347 q 368 348 369 348 l 366 348 l 368 345 l 369 347 "},"A":{"x_min":74,"x_max":918.515625,"ha":993,"o":"m 697 88 q 696 50 697 69 q 692 12 694 31 q 690 1 692 9 q 694 -5 687 -7 q 837 6 764 9 l 918 5 l 918 7 q 876 39 892 10 q 850 111 860 67 q 836 207 840 155 q 831 308 832 259 q 831 400 831 358 q 832 465 832 442 q 831 514 832 488 q 832 563 829 540 q 834 610 833 584 q 837 662 835 636 q 844 713 839 688 q 857 757 849 737 q 882 782 867 777 q 915 800 897 787 l 914 818 l 912 821 q 852 787 881 805 q 792 754 824 769 l 731 784 q 644 805 689 799 q 555 811 600 811 q 360 781 449 811 q 208 693 271 751 q 109 550 144 635 q 74 353 74 465 q 95 212 74 277 q 159 101 117 148 q 263 27 201 53 q 405 1 325 1 q 532 14 472 1 q 540 18 532 16 q 558 23 549 20 q 577 28 568 26 q 587 31 586 31 q 644 60 618 42 q 697 88 669 77 m 533 51 q 410 82 464 51 q 318 163 355 113 q 261 276 280 213 q 242 402 242 339 q 253 530 242 462 q 292 655 264 598 q 369 749 321 712 q 492 787 417 787 q 657 728 610 787 q 704 557 704 670 q 706 468 704 520 q 707 360 708 416 q 698 248 705 303 q 673 148 692 192 q 621 78 654 105 q 533 51 587 51 "},"‘":{"x_min":-12.5,"x_max":1141.765625,"ha":1172,"o":"m 1141 421 q 1136 421 1141 421 q 1104 421 1132 421 q 1016 420 1076 421 q 845 418 957 419 q 563 415 734 416 q 144 411 393 414 l -12 347 q 413 351 240 350 q 698 354 586 352 q 871 356 811 355 q 959 357 932 357 q 991 357 987 357 q 997 357 997 357 l 1141 421 "},"n":{"x_min":27.34375,"x_max":933.0625,"ha":968,"o":"m 815 430 q 814 483 815 448 q 814 561 814 518 q 815 650 814 604 q 819 737 816 697 q 826 808 821 777 q 838 850 831 838 q 812 846 837 850 q 757 838 787 843 q 704 831 728 834 q 680 827 680 827 q 680 812 680 827 q 681 777 681 797 q 681 740 681 759 q 680 716 681 722 q 641 729 659 719 q 603 747 623 740 q 316 797 462 791 q 27 779 170 804 q 49 734 41 763 q 62 669 57 704 q 66 601 66 634 q 67 548 67 568 l 67 439 q 62 207 67 322 q 41 -22 57 93 q 105 -8 73 -12 q 169 -1 137 -3 q 233 0 200 0 q 299 4 266 1 q 223 100 252 51 q 195 218 194 148 l 195 515 q 196 566 195 528 q 198 649 196 605 q 201 729 199 693 q 206 769 203 765 q 305 756 250 769 q 413 719 359 743 q 518 663 467 696 q 608 589 569 630 q 671 501 648 548 q 695 403 695 454 q 685 191 695 297 q 676 -17 676 86 l 676 -22 q 726 -4 692 -10 q 799 4 760 1 q 875 7 838 7 q 933 8 912 8 l 933 12 q 853 90 878 41 q 819 197 828 139 q 812 316 810 255 q 815 430 815 377 "},"O":{"x_min":29,"x_max":891,"ha":954,"o":"m 29 376 q 49 239 29 309 q 108 111 69 169 q 207 15 148 52 q 344 -21 266 -21 q 546 0 448 -21 q 721 67 644 19 q 844 196 797 115 q 891 400 891 277 q 790 704 891 598 q 489 810 690 810 q 302 781 387 810 q 157 698 218 753 q 63 562 97 643 q 29 376 29 482 m 190 430 q 199 550 190 488 q 236 666 209 613 q 310 753 263 719 q 430 787 356 787 q 531 764 487 787 q 607 703 575 741 q 662 616 640 666 q 698 514 685 567 q 718 409 712 462 q 724 312 724 356 q 717 209 724 262 q 688 115 710 157 q 628 46 666 73 q 527 19 590 19 q 386 56 448 19 q 279 153 323 94 q 212 285 235 212 q 190 430 190 359 "},"Õ":{"x_min":68.0625,"x_max":603.546875,"ha":718,"o":"m 587 945 l 573 973 l 429 915 q 437 900 434 905 q 443 887 440 894 q 456 803 459 845 q 438 720 454 761 q 398 641 423 679 q 345 575 373 604 l 508 640 q 555 702 533 666 q 590 777 577 737 q 603 859 602 816 q 587 945 604 902 m 309 945 l 295 973 l 151 915 q 159 900 156 905 q 165 887 162 894 q 179 803 181 845 q 161 720 176 761 q 120 641 145 679 q 68 575 95 604 l 230 640 q 277 702 255 666 q 312 777 300 737 q 325 859 325 816 q 309 945 326 902 "},"3":{"x_min":65.46875,"x_max":538,"ha":670,"o":"m 257 840 l 65 713 l 71 698 l 132 734 q 230 706 179 718 q 332 694 280 694 q 356 695 343 694 q 369 690 369 697 l 371 688 q 334 653 354 670 q 293 618 314 636 q 253 584 272 601 q 222 548 234 566 q 279 532 247 540 q 341 513 311 525 q 396 485 372 502 q 432 438 421 468 l 428 343 l 404 308 l 397 302 l 398 298 q 350 259 378 276 q 293 228 323 243 q 235 198 264 213 q 184 161 207 183 q 147 110 161 140 q 133 37 133 80 q 143 -15 133 9 q 177 -55 152 -40 l 227 -63 l 226 -48 l 189 -34 l 164 12 l 172 52 l 215 118 q 317 164 261 145 q 422 209 373 183 q 504 275 471 234 q 538 388 538 316 q 525 461 538 425 q 496 530 512 498 q 464 560 475 547 q 441 586 453 573 q 415 610 430 598 q 371 633 400 622 q 374 636 373 633 q 373 640 375 638 q 407 675 387 654 q 444 716 426 695 q 473 750 461 736 q 485 763 485 763 l 466 790 l 429 816 l 257 840 m 430 122 l 431 108 l 423 98 q 427 110 426 105 q 430 122 429 115 m 391 56 q 286 -27 319 -1 q 247 -58 252 -54 q 241 -62 241 -62 l 391 56 m 398 70 l 394 66 l 391 68 l 236 -56 l 241 -62 q 247 -58 241 -62 q 286 -27 252 -54 q 391 56 319 -1 l 394 54 q 409 72 401 61 q 415 78 412 75 q 420 84 418 81 q 422 80 422 83 l 422 83 q 422 83 422 83 q 420 84 422 84 q 434 99 429 93 q 440 105 440 105 l 433 186 q 423 126 429 158 q 398 70 418 94 m 394 66 l 398 70 l 394 66 "},"m":{"x_min":5.28125,"x_max":1253.6875,"ha":1365,"o":"m 1042 3 l 1243 1 q 1249 0 1245 1 q 1253 2 1253 0 q 1238 8 1246 5 q 1224 19 1230 12 q 1218 42 1221 30 q 1214 66 1214 55 l 1214 264 q 1220 364 1214 308 q 1229 480 1225 421 q 1227 596 1232 540 q 1202 698 1223 653 q 1141 769 1182 742 q 1030 797 1100 797 q 941 793 977 797 q 875 781 906 790 q 814 756 845 772 q 736 716 782 741 q 731 719 734 713 q 727 727 728 726 q 688 767 709 752 q 655 783 675 776 q 611 795 634 790 q 566 803 588 800 q 531 806 545 806 q 464 798 495 806 q 402 780 432 790 q 341 757 371 769 q 277 735 310 744 q 274 739 274 735 q 275 756 274 743 q 276 783 275 769 q 275 808 277 797 q 270 821 274 819 q 216 804 248 812 q 152 789 185 796 q 86 779 119 783 q 28 775 53 775 q 16 775 23 775 q 5 772 10 775 q 84 714 59 739 q 119 659 109 689 q 127 590 128 630 q 126 487 126 550 q 120 336 126 415 q 115 186 115 258 l 115 165 l 116 159 q 115 157 113 159 q 115 148 116 155 q 105 73 109 111 q 92 0 101 36 q 140 6 109 5 q 201 7 170 8 q 256 5 233 6 q 279 4 279 4 l 269 47 q 260 137 259 91 q 261 227 261 183 q 258 313 261 261 q 255 423 255 365 q 260 540 255 481 q 282 645 266 598 q 328 720 298 691 q 407 750 359 750 q 518 716 480 750 q 573 631 556 682 q 591 520 589 580 q 593 405 593 459 q 591 312 593 366 q 584 205 588 258 q 575 104 580 152 q 567 29 570 56 q 564 0 564 2 l 566 -1 l 655 2 l 763 0 l 770 0 q 764 23 770 5 q 752 64 759 41 q 741 111 746 87 q 736 153 736 135 l 736 345 q 735 421 736 378 q 736 508 734 463 q 746 596 738 553 q 771 673 753 639 q 818 727 789 706 q 895 748 848 748 q 982 721 949 748 q 1034 655 1016 695 q 1059 568 1053 616 q 1066 477 1066 520 q 1066 362 1066 423 q 1065 240 1067 302 q 1058 119 1063 178 q 1041 6 1053 59 l 1042 3 "},"9":{"x_min":7.5625,"x_max":478,"ha":538,"o":"m 266 490 l 266 493 l 265 493 l 265 490 l 266 490 m 478 574 q 462 669 478 621 q 416 758 446 717 q 348 830 387 799 q 262 875 308 861 q 148 832 193 857 q 75 771 103 807 q 33 682 47 734 q 8 563 18 631 q 15 505 4 534 q 46 452 26 477 q 90 406 65 427 q 137 371 115 385 l 179 399 l 237 491 q 187 502 215 493 q 133 525 158 510 q 92 561 108 539 q 75 612 75 582 q 80 686 75 648 q 103 756 86 724 l 135 791 l 157 794 q 203 785 182 794 q 244 764 225 777 q 280 734 262 750 q 314 702 297 717 q 357 605 340 653 q 374 499 374 556 q 364 441 374 468 q 339 389 354 414 q 305 336 325 363 q 268 278 286 309 q 220 216 247 245 q 168 160 193 187 q 123 112 143 134 q 100 73 104 91 l 122 0 l 142 5 q 167 103 142 60 q 229 184 192 146 q 310 259 267 221 q 390 341 353 296 q 453 441 428 385 q 478 574 478 498 "},"¤":{"x_min":12.5,"x_max":876.453125,"ha":926,"o":"m 876 676 q 816 717 840 703 q 758 739 793 732 q 685 751 726 746 q 601 756 644 756 q 520 749 559 756 q 454 726 481 743 l 452 726 l 341 661 q 286 607 311 644 q 244 521 262 569 l 136 521 l 27 457 l 225 457 q 205 331 209 393 l 120 332 l 12 268 l 205 267 q 219 176 208 215 q 286 64 237 108 q 395 0 336 21 q 515 -18 454 -20 q 620 8 576 -16 q 656 26 633 15 q 701 50 679 37 l 762 82 l 777 100 l 763 94 l 729 78 q 624 53 684 55 q 504 71 563 51 q 397 133 445 91 q 330 242 348 175 q 327 253 329 247 q 325 265 326 258 q 547 263 469 264 q 660 262 625 262 q 701 261 695 261 q 707 261 707 261 l 813 328 q 809 328 813 328 q 780 328 805 328 q 704 328 757 328 q 558 328 652 328 q 318 331 463 329 q 325 457 313 389 q 515 456 448 457 q 612 456 581 456 q 647 455 643 456 q 652 454 652 454 l 759 524 q 752 523 759 524 q 705 522 745 522 q 581 521 666 522 q 338 521 495 521 q 408 678 362 617 q 470 685 437 683 q 534 685 502 686 q 595 679 566 683 q 648 669 625 675 q 712 651 684 662 q 773 617 740 640 l 876 676 "},"l":{"x_min":19.453125,"x_max":279.1875,"ha":328,"o":"m 62 5 q 65 1 62 1 q 82 2 73 1 q 100 5 91 3 q 109 5 104 5 q 119 6 115 5 l 125 9 l 125 7 q 197 5 159 7 q 269 5 236 2 l 270 6 q 255 62 261 24 q 247 142 250 99 q 245 224 245 184 q 244 289 244 264 q 247 581 244 435 q 258 873 251 727 q 265 1004 261 936 q 276 1143 269 1073 l 276 1141 l 279 1140 l 276 1141 l 276 1143 q 150 1097 208 1115 q 20 1070 93 1079 l 19 1067 q 54 1041 34 1059 q 81 1008 73 1023 l 81 1006 q 111 941 104 983 q 119 867 119 899 q 104 495 119 681 q 90 124 90 309 q 86 93 90 109 q 76 61 81 77 q 66 31 70 45 q 62 5 62 17 "},"8":{"x_min":16.5625,"x_max":411,"ha":476,"o":"m 213 -45 q 271 37 238 -5 q 336 125 305 80 q 389 216 368 169 q 411 312 411 263 q 398 356 411 333 q 368 404 386 380 q 330 448 350 427 q 298 486 311 469 q 306 496 301 488 q 308 509 311 504 l 332 547 l 333 551 l 358 630 q 349 697 358 663 q 321 769 340 732 q 283 826 301 805 q 235 875 264 847 q 218 889 228 882 q 209 897 209 897 q 156 844 182 877 q 108 771 130 811 q 74 691 87 732 q 61 616 61 650 q 76 541 61 576 q 116 473 92 505 q 81 411 99 437 q 49 360 63 386 q 25 304 34 334 q 16 227 16 273 q 36 155 16 193 q 85 81 56 118 q 143 11 113 44 q 193 -47 173 -22 l 213 -45 m 300 615 l 287 545 l 263 518 q 224 552 245 534 q 185 591 203 570 q 155 635 167 612 q 144 686 144 658 q 152 725 144 705 q 169 765 160 745 l 275 665 q 291 641 282 654 q 300 615 299 629 m 319 219 q 298 150 319 179 q 252 93 278 120 q 207 149 231 122 q 162 205 182 176 q 128 266 141 234 q 114 337 114 298 q 124 394 114 365 q 148 448 134 423 q 205 400 174 423 q 260 350 235 376 q 302 293 285 325 q 319 219 319 261 "},"p":{"x_min":20.65625,"x_max":896.21875,"ha":956,"o":"m 129 326 l 129 180 q 129 117 129 159 q 129 25 129 77 q 126 -81 129 -25 q 119 -185 123 -136 q 106 -268 115 -233 q 85 -313 98 -303 l 87 -313 q 175 -276 131 -294 q 262 -242 218 -257 q 260 -117 261 -179 q 267 6 260 -56 l 273 10 q 344 -1 308 10 q 419 -13 380 -13 q 616 20 528 -13 q 767 114 704 53 q 862 262 829 175 q 896 455 896 348 q 864 614 896 546 q 779 727 833 683 q 651 793 725 771 q 493 815 578 815 q 408 808 451 815 q 324 788 365 802 q 247 751 283 774 q 183 696 211 728 l 20 687 q 90 617 67 659 q 122 526 113 576 q 129 425 130 477 q 129 326 129 373 m 379 145 q 379 157 379 152 q 380 171 379 164 l 379 175 q 329 113 358 142 q 273 57 301 85 l 270 57 q 266 91 268 74 q 265 125 265 109 q 265 334 265 229 q 270 542 266 438 q 281 637 272 592 q 313 717 291 682 q 372 772 334 752 q 468 792 409 792 q 588 750 540 792 q 666 645 637 707 q 708 511 695 582 q 720 382 720 439 q 717 275 720 335 q 696 163 713 216 q 642 76 679 111 q 540 41 605 41 q 491 47 519 41 q 438 68 463 54 q 396 100 413 81 q 379 145 379 120 "},"4":{"x_min":22.296875,"x_max":714.40625,"ha":817,"o":"m 714 460 l 714 474 q 623 463 668 474 q 529 455 578 452 q 536 530 529 487 q 555 620 543 574 q 581 707 567 666 q 611 776 596 748 l 608 810 l 543 801 l 483 822 q 416 755 457 794 q 329 671 376 716 q 235 578 283 626 q 145 484 187 530 q 70 396 102 438 q 22 324 37 354 q 213 333 118 325 q 404 348 308 341 l 407 341 l 414 341 q 418 279 414 318 q 430 193 422 239 q 452 98 439 147 q 484 7 465 49 q 526 -63 503 -33 q 578 -102 549 -93 l 586 -92 q 538 89 563 -2 q 513 275 513 181 l 522 348 l 544 352 l 589 341 l 603 345 q 653 405 621 381 q 714 460 686 430 m 452 735 l 445 698 l 438 695 q 432 640 438 667 q 423 584 426 612 l 420 549 l 415 535 l 406 474 l 377 454 l 181 447 l 152 449 q 298 592 223 524 q 441 735 373 659 l 452 735 "},"Ü":{"x_min":30.28125,"x_max":982.28125,"ha":1058,"o":"m 40 298 q 60 182 40 237 q 119 87 81 127 q 209 23 156 47 q 324 0 262 0 q 436 14 377 0 q 551 51 494 29 q 661 101 608 73 q 759 158 715 129 q 758 125 759 149 q 755 75 757 101 q 753 28 754 49 q 754 4 752 8 q 833 10 794 4 q 912 17 872 17 q 947 15 930 17 q 980 15 964 13 l 982 17 q 940 33 955 20 q 916 62 925 45 q 906 101 908 80 q 904 145 904 123 q 910 313 904 229 q 923 480 915 397 q 936 647 930 564 q 942 814 942 731 l 939 816 q 868 813 904 819 q 797 808 832 808 q 769 809 790 808 q 725 812 748 811 q 681 814 701 814 q 659 811 662 814 q 696 770 676 790 q 733 728 716 750 q 761 682 750 707 q 772 629 772 658 q 775 511 772 573 q 775 388 777 450 q 759 271 772 327 q 716 172 747 215 q 634 104 686 130 q 498 79 581 79 q 376 104 433 79 q 277 174 319 130 q 211 275 235 218 q 187 398 187 333 q 196 534 187 479 q 230 635 206 590 q 292 720 253 680 q 391 811 331 761 l 389 815 q 214 808 302 807 q 38 816 125 809 l 30 811 l 38 807 q 105 761 77 787 q 134 687 134 734 q 119 601 134 647 q 87 506 105 555 q 54 404 69 457 q 40 298 40 352 m 509 945 q 546 860 509 888 q 636 832 583 832 q 713 848 676 832 q 778 894 750 864 l 778 895 q 752 897 766 895 q 728 905 737 898 q 712 864 725 882 q 672 847 700 847 q 588 884 619 847 q 557 972 557 922 q 559 999 557 990 q 566 1012 561 1008 q 582 1015 572 1015 q 608 1015 593 1015 q 637 1015 615 1015 q 683 1016 659 1015 q 725 1017 707 1017 q 744 1017 744 1017 l 786 1021 l 790 1025 q 769 1023 779 1025 q 748 1022 759 1022 q 707 1072 733 1059 q 643 1086 680 1086 q 543 1047 576 1086 q 509 945 509 1008 m 637 1078 q 674 1067 658 1078 q 690 1032 690 1056 l 690 1025 q 677 1021 687 1021 q 623 1020 650 1021 q 570 1020 597 1020 l 566 1020 q 573 1041 566 1031 q 591 1060 580 1051 q 614 1073 602 1068 q 637 1078 626 1078 "},"\u001a":{"x_min":0,"x_max":0,"ha":485},"R":{"x_min":15,"x_max":987.296875,"ha":1022,"o":"m 556 93 q 624 51 592 69 q 689 21 656 33 q 758 1 722 8 q 840 -6 794 -6 q 912 -3 876 -6 q 985 -1 949 -1 l 987 5 l 984 8 q 876 42 923 21 q 793 87 830 62 q 724 138 756 111 q 660 192 692 165 q 590 244 627 219 q 505 289 552 269 l 505 290 q 617 337 560 317 q 719 386 674 357 q 793 462 765 415 q 822 589 822 510 q 797 684 822 642 q 731 757 772 726 q 642 804 691 788 q 545 820 592 820 q 403 805 463 820 q 286 772 344 790 q 165 737 228 753 q 15 718 102 721 q 79 663 55 688 q 116 610 103 638 q 132 549 128 583 q 135 464 135 514 q 134 353 135 408 q 130 242 133 297 l 128 240 q 123 171 127 211 q 115 94 119 130 q 108 31 110 57 q 105 5 105 5 l 106 -1 q 126 2 109 -1 q 168 9 142 5 q 212 12 194 12 q 253 11 233 12 q 295 7 274 10 l 296 8 q 278 51 284 21 q 269 115 271 80 q 268 183 267 150 q 269 236 269 217 l 271 254 l 295 255 q 358 239 321 257 q 431 194 395 221 q 501 139 467 168 q 555 93 534 111 l 556 93 m 270 282 q 267 370 266 325 q 267 459 267 415 q 267 554 267 497 q 277 663 266 611 q 317 753 288 715 q 402 791 345 791 q 504 770 459 791 q 581 715 549 750 q 630 632 613 679 q 647 529 647 585 q 618 407 647 456 q 543 329 590 359 q 437 288 496 300 q 315 277 377 277 q 292 278 303 277 q 270 282 281 279 "},"o":{"x_min":29,"x_max":891,"ha":979,"o":"m 29 396 q 49 259 29 329 q 108 130 69 189 q 207 35 148 72 q 344 -1 266 -1 q 546 19 448 -1 q 721 87 644 39 q 844 216 797 135 q 891 419 891 297 q 790 725 891 619 q 489 831 690 831 q 302 802 387 831 q 157 718 218 774 q 63 582 97 662 q 29 396 29 501 m 190 450 q 199 570 190 508 q 236 686 209 633 q 310 772 263 738 q 430 807 356 807 q 531 784 487 807 q 607 723 575 761 q 662 636 640 686 q 698 534 685 587 q 718 429 712 482 q 724 332 724 376 q 717 229 724 282 q 688 135 710 177 q 628 66 666 93 q 527 39 590 39 q 386 76 448 39 q 279 173 323 114 q 212 305 235 232 q 190 450 190 379 "},"5":{"x_min":62.5,"x_max":794.515625,"ha":860,"o":"m 258 844 l 254 844 l 258 844 m 794 835 l 775 838 q 705 791 743 810 q 623 772 668 772 q 536 783 579 772 q 452 806 494 794 q 368 830 411 819 q 280 841 325 841 q 213 827 245 841 q 151 798 181 813 l 86 710 q 72 657 81 688 q 63 605 63 627 q 65 548 63 571 q 72 505 68 525 q 86 464 77 485 q 106 416 94 443 l 113 400 l 131 360 q 153 278 143 324 q 163 196 163 232 q 136 83 163 130 q 62 -10 108 36 l 62 -18 l 73 -28 q 141 7 108 -15 q 202 61 175 31 q 247 128 229 92 q 272 200 266 164 l 269 202 q 278 259 277 230 q 276 317 279 289 l 273 320 q 258 384 269 353 q 231 443 247 414 q 200 502 216 473 q 170 560 183 531 l 173 566 l 169 567 q 150 608 158 585 q 136 655 141 631 q 130 704 131 680 q 131 749 129 728 l 162 776 q 249 752 204 767 q 339 722 294 737 q 428 697 384 707 q 513 687 472 687 q 563 689 541 687 q 605 696 586 691 q 645 709 625 702 q 693 728 666 717 q 715 748 698 734 q 750 778 732 762 q 781 811 768 795 q 794 835 794 827 m 212 805 l 208 807 l 211 807 l 212 805 "}}}
